<svg width="297" height="305" viewBox="0 0 297 305" fill="none" xmlns="http://www.w3.org/2000/svg">
<path d="M233.307 15.5151L231.87 15.7184C219.718 17.4873 209.396 25.6134 205.363 37.0876C204.843 38.5644 204.433 40.0776 204.136 41.615C203.133 47.2156 203.528 52.9773 205.286 58.3886C207.045 63.8 210.111 68.6936 214.215 72.6353C219.087 77.2372 225.499 80.6801 228.352 86.7256C232.073 94.5807 228.427 103.669 224.808 111.538C221.188 119.406 217.563 128.481 221.317 136.35C223.669 141.264 228.569 144.585 233.72 146.455C247.343 151.403 263.202 147.174 274.134 137.875C285.066 128.576 291.504 114.899 294.378 100.87C298.411 81.2155 295.693 59.7378 284.605 42.8146C273.517 25.8913 253.53 14.3222 233.307 15.5151Z" fill="#FAFFFF"/>
<path d="M31.549 153.815C48.973 153.815 63.0979 139.691 63.0979 122.267C63.0979 104.842 48.973 90.7175 31.549 90.7175C14.125 90.7175 0 104.842 0 122.267C0 139.691 14.125 153.815 31.549 153.815Z" fill="#FAFFFF"/>
<path d="M39.9035 52.7861C41.205 44.5222 35.5608 36.7679 27.2969 35.4664C19.033 34.1649 11.2787 39.8091 9.97721 48.073C8.67573 56.3369 14.3199 64.0912 22.5838 65.3927C30.8477 66.6942 38.602 61.05 39.9035 52.7861Z" fill="#FAFFFF"/>
<path d="M107.965 63.967C107.18 62.6144 106.055 61.4902 104.703 60.7056C103.35 59.9211 101.816 59.5034 100.252 59.4939C98.6607 59.519 97.0938 59.8889 95.6593 60.5781C94.2248 61.2672 92.9569 62.2593 91.9428 63.4858C87.8086 68.3927 87.3816 75.6852 89.9909 81.4257C91.2667 84.3278 93.552 86.6684 96.4227 88.0134C96.8141 88.226 97.2718 88.2813 97.7026 88.168C98.1333 88.0546 98.5046 87.7812 98.7406 87.4034C98.9636 87.0143 99.0246 86.5532 98.9105 86.1195C98.7963 85.6858 98.5162 85.3144 98.1306 85.0855C94.0641 83.2963 91.9496 78.9858 91.753 74.716C91.5362 69.904 93.7253 64.1364 98.9236 63.0046C100.092 62.7468 101.312 62.8664 102.408 63.3463C103.505 63.8261 104.42 64.6415 105.023 65.6749C106.074 67.5929 109.002 65.885 107.951 63.967H107.965Z" fill="#263238"/>
<path d="M93.7727 81.4665C93.2672 81.6365 92.7829 81.8639 92.3291 82.1443C91.6175 82.6458 91.3735 83.3506 91.2718 83.3235C91.1702 83.2964 91.2312 83.1134 91.3532 82.8152C91.5213 82.4334 91.7871 82.1026 92.1238 81.8563C92.4606 81.6099 92.8564 81.4568 93.2712 81.4123C93.583 81.3649 93.7727 81.4259 93.7727 81.4665Z" fill="#455A64"/>
<path d="M91.7665 77.373C91.2499 77.3628 90.735 77.4361 90.2416 77.5899C89.4419 77.9084 89.103 78.5726 89.0149 78.532C88.9268 78.4913 89.0149 78.3151 89.164 78.044C89.3941 77.6974 89.7213 77.4264 90.1046 77.2648C90.488 77.1033 90.9105 77.0584 91.3192 77.1358C91.631 77.2375 91.7869 77.3324 91.7665 77.373Z" fill="#455A64"/>
<path d="M91.7598 72.4457C91.2983 72.2381 90.8198 72.0703 90.3297 71.9442C89.8249 71.9267 89.3196 71.9494 88.8184 72.0119C88.8184 72.0119 88.9336 71.8425 89.2182 71.7205C89.5891 71.5778 89.9905 71.5333 90.3836 71.5915C90.7766 71.6497 91.148 71.8085 91.4616 72.0526C91.6988 72.2492 91.7869 72.4186 91.7598 72.4457Z" fill="#455A64"/>
<path d="M93.2101 67.1323C93.1288 67.1933 92.6747 66.6376 91.8546 66.4546C91.3527 66.3933 90.8452 66.3933 90.3433 66.4546C90.3433 66.4207 90.4653 66.2852 90.7499 66.1767C91.1327 66.0484 91.5442 66.0319 91.936 66.1293C92.3293 66.2216 92.6873 66.4265 92.9661 66.7189C93.183 66.9222 93.244 67.1052 93.2101 67.1323Z" fill="#455A64"/>
<path d="M97.0665 64.0011C96.8523 63.497 96.5962 63.0119 96.3007 62.5507C95.7585 61.873 95.0401 61.5612 95.074 61.4663C95.1079 61.3715 95.9483 61.5273 96.5786 62.3339C96.7892 62.5512 96.9436 62.8167 97.0287 63.1072C97.1137 63.3976 97.1267 63.7045 97.0665 64.0011Z" fill="#455A64"/>
<path d="M97.3105 112.866C97.3105 112.866 131.198 208.056 133.746 212.441C136.294 216.826 172.025 206.083 172.025 206.083C172.025 206.083 177.949 166.645 180.233 163.311C182.517 159.976 195.143 118.295 195.143 118.295L97.3105 112.866Z" fill="#263238"/>
<path d="M190.744 58.7553C191.857 55.8785 192.308 52.7885 192.065 49.7137C191.823 46.6389 190.892 43.658 189.341 40.9916C186.237 35.7188 180.659 32.2623 174.682 31.2389C171.157 30.6201 167.538 30.7937 164.089 31.7472C161.994 32.3368 162.882 35.6103 164.99 35.0207C170.135 33.5566 175.651 34.1928 180.327 36.7896C182.551 38.0515 184.455 39.8081 185.891 41.9235C187.327 44.039 188.257 46.4565 188.609 48.989C189.005 51.9899 188.615 55.042 187.478 57.8471C187.359 58.2812 187.417 58.7445 187.64 59.1358C187.862 59.527 188.23 59.8142 188.664 59.9345C189.096 60.0421 189.554 59.9789 189.941 59.7581C190.329 59.5372 190.616 59.1757 190.744 58.7485V58.7553Z" fill="#263238"/>
<path d="M175.373 34.6073C175.271 34.6073 175.441 33.9296 175.332 33.0553C175.224 32.181 174.912 31.5982 175 31.5439C175.088 31.4897 175.576 32.0861 175.678 33.0146C175.739 33.2868 175.744 33.5687 175.691 33.8427C175.639 34.1167 175.53 34.377 175.373 34.6073Z" fill="#455A64"/>
<path d="M181.588 34.0447C181.683 34.0447 181.866 34.7631 181.452 35.556C181.039 36.349 180.321 36.6201 180.293 36.532C180.266 36.4439 180.788 36.0779 181.141 35.3934C181.493 34.7089 181.459 34.0582 181.588 34.0447Z" fill="#455A64"/>
<path d="M187.376 38.0705C187.296 38.7038 187.015 39.2949 186.575 39.7571C186.135 40.2193 185.558 40.5284 184.929 40.6392C184.889 40.5375 185.648 40.2325 186.319 39.5209C186.99 38.8093 187.274 38.0434 187.376 38.0705Z" fill="#455A64"/>
<path d="M191.029 45.607C191.103 45.668 190.615 46.2237 189.762 46.3796C188.908 46.5355 188.25 46.1899 188.298 46.1085C188.345 46.0272 188.975 46.1763 189.694 46.034C190.412 45.8916 190.968 45.5324 191.029 45.607Z" fill="#455A64"/>
<path d="M192.635 52.4115C192.293 52.4872 191.939 52.4889 191.597 52.4164C191.254 52.3439 190.931 52.199 190.649 51.9913C189.633 51.3881 189.294 50.4461 189.362 50.4189C189.816 50.8832 190.308 51.3094 190.832 51.6931C191.414 51.9779 192.017 52.2181 192.635 52.4115Z" fill="#455A64"/>
<path d="M100.062 198.235L132.79 191.342L132.113 169.139L166.556 168.143L165.742 191.864C165.742 191.864 204.482 202.993 203.784 202.518C203.086 202.044 177.908 250.374 177.908 250.374L136.511 253.81C136.511 253.81 103.647 229.953 103.647 229.309C103.647 228.666 95.8533 208.509 95.8533 208.509L100.062 198.235Z" fill="#263238"/>
<g opacity="0.3">
<path d="M100.421 198.235L133.163 191.342L132.485 169.139L166.928 168.143L166.115 191.864C166.115 191.864 204.848 202.993 204.157 202.518C203.466 202.044 178.281 250.374 178.281 250.374L136.884 253.81C136.884 253.81 103.973 229.96 103.973 229.316C103.973 228.672 96.1923 208.509 96.1923 208.509L100.421 198.235Z" fill="black"/>
</g>
<path d="M139.751 169.139H159.039C160.109 169.139 161.135 169.564 161.891 170.321C162.647 171.077 163.072 172.102 163.072 173.172V189.438C163.072 192.907 161.694 196.234 159.241 198.687C156.788 201.14 153.461 202.518 149.992 202.518H148.799C147.081 202.518 145.38 202.18 143.793 201.523C142.206 200.865 140.764 199.902 139.549 198.687C138.335 197.472 137.371 196.031 136.714 194.444C136.057 192.857 135.718 191.156 135.718 189.438V173.172C135.718 172.102 136.143 171.077 136.899 170.321C137.656 169.564 138.681 169.139 139.751 169.139Z" fill="#455A64"/>
<path d="M163.424 187.168C163.414 187.294 163.391 187.418 163.357 187.54C163.281 187.893 163.186 188.241 163.072 188.584C162.653 189.847 162.05 191.041 161.283 192.129C160.149 193.75 158.708 195.131 157.04 196.195C155.007 197.547 152.652 198.335 150.214 198.479C147.777 198.623 145.345 198.118 143.167 197.015C141.384 196.15 139.788 194.943 138.47 193.464C137.579 192.477 136.841 191.362 136.281 190.156C136.126 189.833 135.99 189.5 135.874 189.16C135.822 189.043 135.786 188.92 135.766 188.794C135.766 188.794 135.983 189.269 136.403 190.095C137.006 191.262 137.765 192.34 138.66 193.301C139.979 194.726 141.556 195.888 143.309 196.724C145.441 197.789 147.815 198.275 150.194 198.134C152.573 197.992 154.873 197.228 156.864 195.917C158.507 194.882 159.938 193.544 161.079 191.973C161.854 190.912 162.48 189.752 162.943 188.523C163.289 187.662 163.384 187.161 163.424 187.168Z" fill="#263238"/>
<path d="M163.147 184.321C163.121 184.432 163.08 184.539 163.025 184.639C162.894 184.936 162.747 185.226 162.584 185.507C162 186.555 161.282 187.523 160.449 188.387C159.221 189.684 157.782 190.763 156.193 191.579C154.251 192.606 152.105 193.19 149.911 193.291C147.717 193.392 145.527 193.006 143.499 192.162C141.843 191.494 140.312 190.55 138.971 189.37C138.066 188.585 137.265 187.687 136.586 186.7C136.397 186.433 136.225 186.154 136.071 185.866C136.005 185.774 135.953 185.674 135.915 185.568C136.837 186.898 137.918 188.112 139.134 189.18C140.472 190.314 141.988 191.218 143.621 191.857C145.609 192.669 147.749 193.039 149.894 192.942C152.039 192.845 154.137 192.283 156.044 191.295C157.611 190.506 159.04 189.466 160.273 188.218C161.388 187.042 162.353 185.733 163.147 184.321Z" fill="#263238"/>
<path d="M162.936 180.159C162.902 180.268 162.856 180.372 162.801 180.471C162.692 180.661 162.57 180.966 162.34 181.318C161.725 182.333 160.985 183.266 160.137 184.097C157.997 186.296 155.24 187.793 152.23 188.391C149.22 188.989 146.1 188.659 143.282 187.445C141.657 186.759 140.159 185.806 138.849 184.626C137.964 183.835 137.178 182.938 136.511 181.955C136.267 181.617 136.125 181.318 136.01 181.135C135.948 181.04 135.898 180.938 135.861 180.83C136.763 182.154 137.821 183.365 139.012 184.436C140.323 185.57 141.808 186.486 143.411 187.147C145.368 187.963 147.472 188.367 149.592 188.333C151.705 188.257 153.78 187.752 155.691 186.849C157.259 186.108 158.698 185.122 159.954 183.928C161.096 182.796 162.098 181.531 162.936 180.159Z" fill="#263238"/>
<path d="M163.167 175.232C163.124 175.332 163.072 175.427 163.011 175.517C162.889 175.7 162.74 175.978 162.489 176.303C161.817 177.253 161.039 178.124 160.171 178.899C157.299 181.479 153.628 182.995 149.772 183.195C145.916 183.395 142.109 182.266 138.985 179.997C138.043 179.325 137.179 178.55 136.41 177.686C136.132 177.387 135.949 177.123 135.813 176.954C135.741 176.871 135.679 176.78 135.63 176.683C135.94 176.969 136.234 177.272 136.511 177.591C137.311 178.407 138.187 179.145 139.127 179.793C140.52 180.756 142.045 181.512 143.655 182.037C145.619 182.687 147.687 182.972 149.754 182.877C151.821 182.754 153.848 182.258 155.739 181.413C158.334 180.248 160.612 178.477 162.381 176.249C162.623 175.895 162.885 175.555 163.167 175.232Z" fill="#263238"/>
<path d="M163.167 170.319C163.124 170.418 163.072 170.514 163.011 170.603C162.889 170.786 162.74 171.064 162.489 171.389C161.815 172.33 161.038 173.191 160.171 173.958C157.299 176.538 153.628 178.055 149.772 178.254C145.916 178.454 142.109 177.325 138.985 175.056C138.043 174.384 137.179 173.609 136.41 172.745C136.132 172.447 135.949 172.182 135.813 172.013C135.741 171.931 135.679 171.84 135.63 171.742C135.94 172.028 136.234 172.331 136.511 172.65C137.311 173.466 138.187 174.204 139.127 174.853C140.52 175.815 142.045 176.571 143.655 177.096C145.619 177.746 147.687 178.031 149.754 177.936C151.821 177.813 153.848 177.317 155.739 176.473C158.334 175.308 160.612 173.537 162.381 171.308C162.623 170.963 162.886 170.633 163.167 170.319Z" fill="#263238"/>
<path d="M111.231 115.93C111.272 122.707 107.992 128.888 104.149 134.27C100.082 139.969 95.2163 145.114 91.6513 151.173C85.4906 161.671 82.9694 174.372 86.1209 186.259C87.9429 192.948 91.3751 199.089 96.1177 204.145C97.5952 205.744 99.9876 203.345 98.5101 201.746C94.5652 197.563 91.6155 192.544 89.8811 187.063C88.1466 181.581 87.6722 175.779 88.4931 170.088C89.3358 164.255 91.2818 158.636 94.2268 153.531C97.6494 147.52 102.36 142.423 106.426 136.872C110.892 130.772 114.64 123.704 114.593 115.964C114.593 113.781 111.204 113.775 111.204 115.964L111.231 115.93Z" fill="#5CFEF8"/>
<path d="M91.0143 160.884C90.7211 161.02 90.3997 161.085 90.0767 161.072C89.7538 161.059 89.4386 160.969 89.1572 160.81C88.1474 160.369 87.7611 159.502 87.8492 159.454C87.9373 159.407 88.4049 160.078 89.2996 160.457C89.8565 160.653 90.4306 160.796 91.0143 160.884Z" fill="#455A64"/>
<path d="M93.1288 156.188C92.8037 156.274 92.464 156.29 92.1321 156.235C91.8003 156.18 91.4839 156.056 91.204 155.869C90.201 155.334 89.8079 154.453 89.896 154.419C90.3594 154.837 90.8533 155.219 91.3735 155.564C91.9443 155.81 92.5307 156.018 93.1288 156.188Z" fill="#455A64"/>
<path d="M95.5145 151.47C95.5145 151.518 95.2908 151.552 94.9452 151.47C94.489 151.371 94.0649 151.159 93.7117 150.854C93.3559 150.555 93.0828 150.17 92.9187 149.735C92.7967 149.403 92.7967 149.18 92.8374 149.173C92.878 149.166 93.183 149.952 93.9421 150.589C94.4315 150.941 94.959 151.237 95.5145 151.47Z" fill="#455A64"/>
<path d="M99.5809 146.076C99.5809 146.117 99.3505 146.137 98.9913 146.035C98.5308 145.889 98.1139 145.63 97.7781 145.283C97.4508 144.934 97.2176 144.507 97.1004 144.043C97.0123 143.69 97.0394 143.46 97.1004 143.453C97.3111 144.045 97.6456 144.585 98.0815 145.037C98.5174 145.489 99.0448 145.844 99.6284 146.076H99.5809Z" fill="#455A64"/>
<path d="M103.83 140.871C103.83 140.918 103.58 140.932 103.207 140.83C102.724 140.684 102.283 140.427 101.919 140.078C101.553 139.728 101.277 139.296 101.113 138.817C100.991 138.451 100.997 138.207 101.038 138.2C101.35 138.781 101.728 139.325 102.163 139.82C102.674 140.237 103.234 140.589 103.83 140.871Z" fill="#455A64"/>
<path d="M88.9268 167.689C88.9268 167.73 88.7574 167.852 88.4117 167.933C87.9626 168.026 87.4977 168.01 87.0562 167.886C86.7338 167.825 86.4293 167.692 86.1653 167.497C85.9013 167.302 85.6846 167.051 85.5313 166.76C86.05 167.062 86.5916 167.323 87.1511 167.54C87.7362 167.651 88.3313 167.701 88.9268 167.689Z" fill="#455A64"/>
<path d="M88.1203 174.392C87.6358 174.752 87.0325 174.914 86.4328 174.846C85.8288 174.889 85.2316 174.697 84.7655 174.31C84.8062 174.216 85.5246 174.473 86.4395 174.493C87.3545 174.514 88.0593 174.29 88.1203 174.392Z" fill="#455A64"/>
<path d="M88.9878 182.803C88.4878 183.176 87.8929 183.402 87.2709 183.453C86.6489 183.505 86.025 183.38 85.4703 183.094C85.4703 182.992 86.2769 183.189 87.2392 183.094C88.2016 182.999 88.9404 182.708 88.9878 182.803Z" fill="#455A64"/>
<path d="M91.448 191.268C91.0621 191.738 90.5126 192.046 89.9095 192.128C89.3333 192.323 88.7041 192.286 88.1542 192.027C88.1542 191.925 88.9336 192.027 89.8282 191.783C90.7228 191.539 91.3531 191.18 91.448 191.268Z" fill="#455A64"/>
<path d="M188.304 125.154C183.56 136.065 185.749 148.251 189.917 158.973C194.296 170.224 200.728 180.79 202.937 192.793C204.096 199.109 203.933 205.67 201.534 211.702C201.419 212.134 201.478 212.594 201.699 212.983C201.919 213.372 202.283 213.659 202.713 213.782C203.147 213.892 203.606 213.83 203.995 213.609C204.384 213.388 204.673 213.025 204.801 212.596C209.233 201.502 206.427 189.106 202.09 178.445C197.623 167.438 191.402 156.947 189.484 145.066C188.515 139.02 188.752 132.541 191.219 126.862C191.432 126.471 191.488 126.014 191.376 125.583C191.264 125.153 190.992 124.781 190.616 124.544C190.226 124.321 189.765 124.26 189.332 124.374C188.898 124.488 188.527 124.768 188.298 125.154H188.304Z" fill="#5CFEF8"/>
<path d="M200.219 173.511C200.26 173.511 200.219 173.768 199.982 174.087C199.678 174.501 199.255 174.814 198.769 174.981C198.28 175.144 197.753 175.144 197.264 174.981C196.891 174.859 196.715 174.683 196.736 174.649C197.365 174.806 198.024 174.806 198.654 174.649C199.25 174.385 199.784 173.997 200.219 173.511Z" fill="#455A64"/>
<path d="M196.18 164.985C196.221 164.985 196.18 165.222 195.943 165.5C195.647 165.856 195.259 166.123 194.822 166.274C194.384 166.424 193.914 166.452 193.462 166.354C193.116 166.266 192.94 166.13 192.961 166.09C193.547 166.185 194.147 166.134 194.709 165.941C195.27 165.748 195.776 165.42 196.18 164.985Z" fill="#455A64"/>
<path d="M192.188 155.178C192.262 155.225 191.761 155.964 190.771 156.371C190.489 156.522 190.177 156.609 189.857 156.625C189.537 156.641 189.218 156.587 188.921 156.466C189.5 156.355 190.072 156.215 190.636 156.045C191.53 155.706 192.107 155.124 192.188 155.178Z" fill="#455A64"/>
<path d="M189.721 146.035C189.809 146.069 189.477 146.882 188.643 147.533C188.182 147.966 187.574 148.208 186.942 148.211C186.908 148.116 187.667 147.838 188.426 147.235C189.185 146.632 189.66 145.988 189.721 146.035Z" fill="#455A64"/>
<path d="M204.109 184.321C204.177 184.382 203.682 184.931 202.828 185.154C202.584 185.253 202.32 185.297 202.057 185.283C201.794 185.268 201.536 185.197 201.303 185.073C201.303 184.971 201.981 185.026 202.74 184.816C203.499 184.605 204.042 184.212 204.109 184.321Z" fill="#455A64"/>
<path d="M206.929 195.714C206.429 196.11 205.827 196.357 205.193 196.427C204.559 196.496 203.918 196.385 203.344 196.107C203.344 196.005 204.177 196.195 205.153 196.107C206.129 196.019 206.881 195.626 206.929 195.714Z" fill="#455A64"/>
<path d="M187.722 48.9958C179.446 35.4815 164.15 27.7959 150.086 27.5113C136.023 27.2266 121.655 32.9942 110.899 43.7771L120.137 53.801L180.009 54.8718L187.722 48.9958Z" fill="#263238"/>
<path d="M111.53 43.1401C111.53 43.1401 97.2291 54.1874 100.442 75.9768C102.475 89.7554 124.929 75.5092 124.929 75.5092L131.706 50.4327L111.53 43.1401Z" fill="#263238"/>
<path d="M184.496 45.1799C184.496 45.1799 196.919 57.5962 195.339 71.4425C193.76 85.2888 170.432 75.7665 170.432 75.7665L163.655 50.69L184.496 45.1799Z" fill="#263238"/>
<path d="M133.468 164.537C132.201 173.606 131.137 182.687 132.587 191.803C133.144 195.803 134.445 199.662 136.423 203.182C137.834 205.586 139.485 207.841 141.35 209.912C144.192 212.915 147.218 215.738 150.412 218.364C151.239 219.042 152.445 217.876 151.611 217.164C146.793 213.037 141.947 208.875 138.538 203.447C134.308 196.71 133.36 188.536 133.516 180.736C133.721 175.461 134.239 170.204 135.068 164.992C135.217 163.927 133.583 163.467 133.434 164.537H133.468Z" fill="#263238"/>
<path d="M163.811 164.991C165.044 173.802 166.115 182.755 164.644 191.634C164.091 195.502 162.808 199.231 160.863 202.62C159.509 204.916 157.919 207.065 156.118 209.031C153.341 211.91 150.399 214.625 147.308 217.164C146.481 217.876 147.68 219.069 148.507 218.364C153.502 214.087 158.443 209.77 161.947 204.131C166.264 197.205 167.254 188.746 167.105 180.729C166.887 175.302 166.346 169.893 165.485 164.531C165.336 163.46 163.702 163.914 163.851 164.985L163.811 164.991Z" fill="#263238"/>
<path d="M110.825 220.465C114.131 218.142 116.702 214.919 118.232 211.18C119.527 207.847 120.256 204.322 120.388 200.749C120.577 197.55 120.51 194.318 120.449 191.112C120.333 185.351 119.771 179.59 120.449 173.809C121.072 168.448 122.875 163.019 126.718 159.102C127.477 158.323 126.284 157.123 125.518 157.902C118.063 165.486 118.232 176.744 118.612 186.618C118.768 190.488 118.849 194.365 118.788 198.242C118.809 201.625 118.369 204.995 117.48 208.259C116.268 212.586 113.623 216.373 109.978 219.001C109.09 219.624 109.937 221.095 110.832 220.465H110.825Z" fill="#263238"/>
<path d="M188.853 198.343C188.413 193.518 187.986 188.665 187.139 183.894C186.545 181.055 185.683 178.28 184.563 175.605C183.208 172.054 181.703 168.55 180.551 164.917C179.243 160.769 178.416 156.486 178.816 152.128C178.965 150.501 176.424 150.508 176.275 152.128C175.563 159.902 178.559 167.255 181.358 174.338C182.523 177.299 183.811 180.315 184.468 183.447C184.97 185.825 185.255 188.245 185.533 190.658C185.831 193.213 186.075 195.782 186.312 198.343C186.461 199.956 189.023 199.977 188.853 198.343Z" fill="#263238"/>
<path d="M188.006 219.001C181.642 215.463 179.629 207.432 178.83 200.702C178.44 197.177 178.243 193.634 178.24 190.088C178.186 184.463 178.355 178.784 177.271 173.233C176.254 168.008 174.072 162.87 170.134 159.183C169.341 158.438 168.101 159.631 168.935 160.376C177.006 167.947 176.444 179.949 176.546 190.088C176.613 197.11 176.932 204.551 179.589 211.139C181.12 214.941 183.506 218.418 187.152 220.445C188.108 220.973 188.962 219.509 188.006 218.981V219.001Z" fill="#263238"/>
<path d="M175.929 157.631C175.929 157.631 172.696 172.542 172.981 179.211C173.265 185.88 173.577 193.26 173.577 193.26L166.122 193.579C166.122 193.579 168.25 179.821 169.287 173.206C170.066 168.486 171.155 163.822 172.547 159.244" fill="#455A64"/>
<path d="M119.71 156.601C119.71 156.601 123.566 171.349 123.566 178.038V192.101H131.022C131.022 192.101 128.311 178.445 127.002 171.884C126.015 167.199 124.725 162.583 123.139 158.065" fill="#455A64"/>
<path d="M132.838 31.3948C132.957 31.6466 133.05 31.9101 133.116 32.181C133.299 32.7638 133.522 33.489 133.794 34.3497C134.356 36.1796 135.149 38.7009 136.105 41.4593C137.06 44.2177 137.996 46.6982 138.687 48.4807L139.5 50.5953C139.614 50.8501 139.703 51.1157 139.764 51.3882C139.602 51.1602 139.47 50.9118 139.371 50.6495C139.141 50.1683 138.829 49.4566 138.456 48.5756C137.704 46.8067 136.728 44.3465 135.745 41.5745C134.763 38.8025 134.031 36.2678 133.529 34.4175C133.278 33.4958 133.082 32.7435 132.967 32.2148C132.889 31.948 132.846 31.6725 132.838 31.3948Z" fill="#455A64"/>
<path d="M162.937 30.6696C163.031 30.6696 161.54 35.4138 159.602 41.2017C157.664 46.9896 156.03 51.6525 155.935 51.6254C155.841 51.5983 157.338 46.8812 159.27 41.0933C161.202 35.3053 162.848 30.6424 162.937 30.6696Z" fill="#455A64"/>
<path d="M203.174 86.2783C205.808 91.9003 206.715 98.1767 205.783 104.314C204.85 110.452 202.119 116.176 197.935 120.762L203.174 86.2783Z" fill="#E0E0E0"/>
<path d="M188.748 125.595L187.846 125.492C185.217 125.191 182.816 123.858 181.17 121.786C179.524 119.715 178.768 117.074 179.069 114.445L182.345 85.8215C182.646 83.1928 183.979 80.7912 186.051 79.1452C188.122 77.4992 190.763 76.7435 193.391 77.0444L194.294 77.1477C196.921 77.4484 199.321 78.7803 200.965 80.8505C202.61 82.9206 203.366 85.5594 203.065 88.1864L199.788 116.817C199.639 118.119 199.235 119.378 198.599 120.524C197.963 121.669 197.108 122.678 196.082 123.493C195.057 124.308 193.88 124.913 192.621 125.274C191.361 125.634 190.043 125.743 188.741 125.594L188.748 125.595Z" fill="#5CFEF8"/>
<path d="M203.486 112.1C203.405 111.857 203.357 111.604 203.344 111.348C203.269 110.853 203.194 110.142 203.133 109.254C202.829 104.632 203.319 99.9923 204.584 95.5364C204.828 94.6825 205.045 93.9979 205.221 93.5032C205.295 93.2669 205.395 93.0396 205.519 92.8254C205.573 92.8254 205.248 93.8895 204.841 95.5974C203.723 100.059 203.239 104.657 203.405 109.254C203.438 111.009 203.54 112.1 203.486 112.1Z" fill="#263238"/>
<path d="M203.71 103.181C203.649 103.263 203.215 103.032 202.639 102.944C202.063 102.856 201.581 102.944 201.554 102.822C201.527 102.7 202.029 102.483 202.7 102.598C203.371 102.714 203.777 103.113 203.71 103.181Z" fill="#263238"/>
<path d="M92.5189 85.9531C89.9686 91.6142 89.1547 97.9045 90.1802 104.028C91.2056 110.152 94.0243 115.834 98.2797 120.355L92.5189 85.9531Z" fill="#E0E0E0"/>
<path d="M101.266 76.7018L102.166 76.5846C103.465 76.4158 104.783 76.5043 106.048 76.8452C107.312 77.186 108.496 77.7725 109.534 78.5711C110.571 79.3697 111.441 80.3649 112.094 81.4998C112.747 82.6346 113.17 83.8869 113.338 85.1852L117.054 113.756C117.395 116.379 116.68 119.031 115.066 121.128C113.452 123.224 111.072 124.594 108.448 124.935L107.547 125.052C106.249 125.221 104.93 125.133 103.666 124.792C102.402 124.451 101.217 123.865 100.18 123.066C99.1424 122.267 98.2724 121.272 97.6196 120.137C96.9667 119.002 96.5438 117.75 96.375 116.452L92.6584 87.8748C92.3172 85.251 93.0322 82.5991 94.6462 80.5025C96.2602 78.4059 98.641 77.0363 101.265 76.695L101.266 76.7018Z" fill="#5CFEF8"/>
<path d="M111.665 195.165C111.76 192.664 111.848 190.156 111.99 187.662C112.068 185.056 112.339 182.46 112.804 179.895C113.559 176.856 114.551 173.88 115.772 170.996C116.905 168.077 117.811 165.075 118.483 162.016C119.319 158.345 119.511 154.557 119.052 150.82C118.962 150.496 118.748 150.221 118.456 150.055C118.164 149.889 117.818 149.845 117.494 149.932C117.173 150.03 116.903 150.247 116.738 150.538C116.573 150.829 116.525 151.173 116.606 151.498C117.453 157.835 115.582 164.307 113.346 170.176C112.174 172.977 111.198 175.855 110.425 178.79C109.899 181.409 109.581 184.065 109.476 186.734C109.3 189.546 109.205 192.359 109.096 195.178C109.042 196.812 111.584 196.812 111.638 195.178L111.665 195.165Z" fill="#263238"/>
<path d="M112.756 51.334H139.365C139.778 51.3342 140.187 51.2464 140.564 51.0764L140.795 50.968C143.012 49.954 145.425 49.4365 147.863 49.4517C150.301 49.467 152.707 50.0145 154.912 51.0561C155.297 51.2389 155.719 51.3338 156.145 51.334H183.255C183.806 51.3262 184.347 51.4842 184.808 51.7875C185.268 52.0908 185.627 52.5255 185.837 53.0351L195.326 77.034C195.442 77.3276 195.501 77.6402 195.502 77.9558V96.1193C195.502 96.1193 190.873 129.329 187.606 140.173C184.34 151.017 170.988 166.395 163.099 170.542C155.21 174.69 142.258 174.338 132.689 169.126C123.783 164.273 112.214 154.934 107.314 138.627C102.414 122.321 100.049 96.1057 100.049 96.1057L99.9469 77.7253C99.9432 77.3832 100.01 77.0441 100.143 76.729L110.228 52.9673C110.446 52.479 110.8 52.0644 111.249 51.7744C111.698 51.4843 112.222 51.3313 112.756 51.334Z" fill="#E0E0E0"/>
<path d="M195.475 91.9646H194.96H193.415C192.012 88.6776 188.806 81.1885 184.333 70.7377V70.6835C184.333 69.9447 184.333 69.1924 184.333 68.4266C184.352 67.6482 184.32 66.8694 184.238 66.0951C183.908 63.5045 182.734 61.0949 180.896 59.2398C179.058 57.3847 176.659 56.1876 174.072 55.8341C173.127 55.7294 172.175 55.6932 171.225 55.7257H163.77C163.271 55.7135 162.771 55.7498 162.279 55.8341C161.282 56.0309 160.362 56.5077 159.626 57.2087C158.89 57.9097 158.369 58.8058 158.124 59.7921C157.999 60.2949 157.944 60.8127 157.962 61.3306V66.2849L157.867 66.3934L152.831 69.2738H152.791H143.675H143.641L138.063 66.5628L137.962 66.5153V61.3442C137.982 60.8052 137.923 60.2662 137.785 59.7447C137.514 58.7188 136.943 57.7973 136.145 57.0981C135.347 56.399 134.358 55.9541 133.305 55.8206C132.783 55.7739 132.258 55.758 131.733 55.7731H119.5C119.022 55.7589 118.543 55.7861 118.07 55.8544C117.148 56.0041 116.267 56.3409 115.481 56.8439C114.724 57.3284 114.072 57.9583 113.561 58.6971C113.05 59.4359 112.692 60.2689 112.506 61.1476C112.362 62.0004 112.31 62.866 112.35 63.7298V66.2781C112.35 67.9454 112.35 69.5516 112.35 71.0969V71.1376L103.092 92.0053H103.051L112.153 71.0698V71.1172C112.153 69.572 112.153 67.9657 112.153 66.2985V63.6824C112.107 62.7988 112.155 61.9127 112.295 61.0392C112.589 59.6366 113.301 58.3563 114.339 57.3676C115.376 56.3788 116.689 55.7283 118.104 55.502C118.592 55.4264 119.087 55.3946 119.581 55.4071H131.814C132.355 55.3895 132.896 55.4053 133.434 55.4546C134.55 55.6005 135.598 56.0756 136.442 56.8192C137.287 57.5627 137.892 58.5411 138.178 59.6295C138.321 60.1803 138.387 60.7482 138.375 61.3171V66.3934L138.273 66.2307L143.858 68.9417H143.777H152.784H152.696L157.738 66.0613L157.65 66.2104V61.3577C157.634 60.8123 157.693 60.2672 157.826 59.7379C158.087 58.6893 158.642 57.7367 159.424 56.9914C160.207 56.2461 161.185 55.7389 162.245 55.5291C162.76 55.4396 163.282 55.4033 163.804 55.4207H171.259C172.223 55.39 173.188 55.4308 174.146 55.5427C176.799 55.904 179.257 57.1343 181.135 59.0413C183.014 60.9482 184.208 63.4241 184.529 66.0816C184.614 66.867 184.646 67.6572 184.624 68.4469C184.624 69.2128 184.624 69.9651 184.624 70.7038V70.6564C189.016 81.1478 192.161 88.6572 193.543 91.9511H193.509H195.055L195.475 91.9646Z" fill="#263238"/>
<path d="M144.549 63.3911H150.412C150.708 63.3911 150.993 63.509 151.203 63.7187C151.412 63.9284 151.53 64.2128 151.53 64.5094V69.1045H143.397V64.5298C143.394 64.3783 143.422 64.2279 143.479 64.0875C143.536 63.9472 143.621 63.82 143.729 63.7135C143.837 63.607 143.965 63.5235 144.106 63.4681C144.247 63.4127 144.398 63.3865 144.549 63.3911Z" fill="#263238"/>
<path d="M146.813 105.235C146.687 105.283 146.558 105.322 146.427 105.35L145.302 105.635C144.807 105.743 144.204 105.926 143.505 106.13C142.807 106.333 142.014 106.597 141.127 106.889C139.038 107.629 137.001 108.505 135.027 109.512C132.514 110.774 130.134 112.286 127.924 114.025H127.89C124.708 114.844 121.443 115.298 118.158 115.381C116.044 115.444 113.947 114.978 112.058 114.025C110.316 113.113 108.822 111.789 107.707 110.169C107.572 109.973 107.45 109.776 107.328 109.586C107.206 109.396 107.111 109.166 107.009 108.956C106.846 108.529 106.67 108.116 106.541 107.695C106.263 106.862 106.04 106.042 105.823 105.242C105.403 103.656 105.064 102.158 104.759 100.796C104.162 98.0849 103.735 95.8483 103.451 94.3099L103.146 92.5342C103.112 92.3512 103.092 92.1953 103.071 92.0733C103.061 92.0196 103.061 91.9644 103.071 91.9106C103.093 91.9605 103.109 92.0129 103.119 92.0665L103.22 92.5206C103.309 92.9544 103.437 93.544 103.593 94.2827C103.918 95.8077 104.379 98.0239 105.01 100.742C105.328 102.097 105.687 103.588 106.114 105.167C106.331 105.96 106.562 106.774 106.846 107.594C106.968 108.014 107.151 108.414 107.307 108.827C107.402 109.024 107.504 109.22 107.605 109.417C107.707 109.613 107.849 109.796 107.978 109.979C109.071 111.55 110.529 112.832 112.228 113.714C114.068 114.632 116.109 115.075 118.165 115.001C121.422 114.911 124.659 114.456 127.816 113.646L127.748 113.68C129.984 111.934 132.394 110.421 134.939 109.166C136.93 108.17 138.989 107.313 141.1 106.604C141.994 106.319 142.787 106.055 143.505 105.886C144.224 105.716 144.814 105.533 145.315 105.438L146.454 105.208C146.574 105.206 146.694 105.215 146.813 105.235Z" fill="white"/>
<path d="M146.813 105.235C146.966 105.218 147.121 105.218 147.274 105.235L148.629 105.289C150.288 105.402 151.936 105.644 153.557 106.014C159.137 107.376 164.317 110.035 168.677 113.774L168.609 113.734C171.318 114.415 174.083 114.846 176.871 115.022C177.959 115.09 179.051 115.076 180.138 114.981C181.656 114.827 183.129 114.37 184.468 113.637C185.807 112.903 186.985 111.908 187.932 110.711C188.231 110.347 188.507 109.965 188.759 109.566C188.987 109.175 189.18 108.764 189.335 108.339C189.653 107.492 189.904 106.645 190.141 105.818C190.609 104.171 190.982 102.619 191.32 101.202C191.998 98.3558 192.466 96.0447 192.805 94.4249C192.967 93.6455 193.096 93.0694 193.198 92.5814L193.299 92.107C193.308 92.0501 193.326 91.9951 193.354 91.9443C193.357 92.0008 193.357 92.0573 193.354 92.1138C193.354 92.2425 193.306 92.4052 193.279 92.595C193.198 93.0491 193.089 93.6658 192.954 94.452C192.656 96.0582 192.208 98.3761 191.598 101.229C191.273 102.653 190.921 104.212 190.46 105.872C190.222 106.699 189.978 107.56 189.653 108.42C189.493 108.888 189.288 109.34 189.043 109.769C188.785 110.175 188.505 110.567 188.203 110.941C186.926 112.558 185.248 113.813 183.337 114.581C182.328 114.98 181.27 115.24 180.192 115.354C179.085 115.454 177.973 115.47 176.864 115.401C174.053 115.226 171.264 114.788 168.535 114.093H168.494H168.46C167.223 113.002 165.902 112.009 164.509 111.124C163.24 110.301 161.923 109.554 160.564 108.888C158.308 107.788 155.947 106.918 153.516 106.292C151.909 105.903 150.276 105.629 148.629 105.472L147.308 105.364C147.14 105.333 146.975 105.29 146.813 105.235Z" fill="white"/>
<path d="M118.131 158.004C118.22 157.958 118.313 157.919 118.409 157.889L119.229 157.598L122.346 156.554L122.272 156.655C122.021 154.487 121.689 151.64 121.303 148.34C121.208 147.513 121.113 146.652 121.011 145.764C120.91 144.876 120.774 143.982 120.584 143.053C120.245 141.216 119.778 139.305 119.276 137.347C117.589 130.928 115.732 125.208 114.383 121.081L112.77 116.194C112.587 115.638 112.445 115.198 112.336 114.839C112.273 114.686 112.227 114.527 112.201 114.364C112.28 114.507 112.346 114.657 112.397 114.812C112.526 115.15 112.689 115.584 112.899 116.126C113.319 117.265 113.915 118.925 114.62 120.979C116.03 125.1 117.927 130.813 119.615 137.245C120.123 139.21 120.584 141.122 120.916 142.979C121.113 143.9 121.215 144.822 121.337 145.69C121.459 146.557 121.526 147.431 121.614 148.265C121.96 151.572 122.252 154.426 122.475 156.601V156.683H122.394L119.249 157.631L118.415 157.869C118.326 157.925 118.231 157.971 118.131 158.004Z" fill="#263238"/>
<path d="M178.104 158.567C178.005 158.555 177.907 158.532 177.813 158.499L176.973 158.262L173.835 157.313H173.753V157.211C173.984 155.002 174.289 152.101 174.634 148.726C174.729 147.878 174.817 146.997 174.919 146.096C175.021 145.195 175.163 144.253 175.36 143.317C175.692 141.42 176.166 139.468 176.661 137.455C178.335 130.915 180.178 125.086 181.547 120.884C182.225 118.783 182.815 117.089 183.221 115.923L183.709 114.567C183.76 114.411 183.824 114.259 183.899 114.113C183.873 114.277 183.832 114.438 183.777 114.594C183.669 114.933 183.526 115.387 183.357 115.95C182.971 117.17 182.442 118.864 181.785 120.945C180.477 125.167 178.674 131.003 177.006 137.529C176.512 139.563 176.037 141.481 175.692 143.365C175.495 144.3 175.387 145.222 175.244 146.116C175.102 147.011 175.041 147.899 174.946 148.746L173.963 157.211L173.896 157.109L177.006 158.153L177.827 158.445C177.924 158.473 178.017 158.514 178.104 158.567Z" fill="#263238"/>
<path d="M127.816 113.896C127.928 114.145 128.01 114.407 128.06 114.676C128.188 115.191 128.351 115.936 128.493 116.872C128.672 117.974 128.724 119.092 128.649 120.206C128.618 120.897 128.382 121.562 127.972 122.118C127.417 122.591 126.764 122.936 126.06 123.127C124.759 123.522 123.429 123.814 122.082 124.002C120.842 124.185 119.723 124.3 118.788 124.388C117.853 124.476 117.087 124.53 116.565 124.564C116.292 124.581 116.018 124.581 115.745 124.564C116.736 124.33 117.745 124.178 118.761 124.11C119.696 123.988 120.794 123.846 122.028 123.642C123.353 123.445 124.663 123.151 125.945 122.761C126.595 122.586 127.201 122.274 127.721 121.846C128.077 121.345 128.284 120.753 128.317 120.139C128.406 119.05 128.379 117.955 128.236 116.872C128.134 115.943 128.006 115.191 127.924 114.676C127.867 114.419 127.831 114.159 127.816 113.896Z" fill="white"/>
<path d="M168.968 114.1C168.963 114.36 168.929 114.619 168.867 114.872C168.785 115.36 168.663 116.072 168.562 116.96C168.424 117.989 168.383 119.028 168.44 120.064C168.456 120.66 168.595 121.245 168.846 121.785C169.212 122.296 169.74 122.666 170.344 122.836C171.544 123.256 172.78 123.56 174.038 123.744C175.197 123.934 176.254 124.063 177.142 124.164C178.108 124.218 179.067 124.356 180.009 124.578C179.749 124.596 179.489 124.596 179.229 124.578C178.735 124.578 178.009 124.51 177.115 124.435C176.22 124.361 175.163 124.259 173.984 124.083C172.7 123.916 171.437 123.616 170.215 123.188C169.887 123.065 169.572 122.911 169.273 122.728C168.965 122.546 168.712 122.283 168.541 121.968C168.271 121.384 168.125 120.749 168.114 120.105C168.074 119.048 168.142 117.989 168.318 116.946C168.453 116.059 168.609 115.347 168.731 114.859C168.78 114.597 168.86 114.343 168.968 114.1Z" fill="white"/>
<path d="M173.862 155.666C173.834 155.844 173.789 156.019 173.726 156.188L173.252 157.706C171.524 159.021 168.447 161.332 164.441 164.178C163.431 164.856 162.374 165.629 161.235 166.374C160.673 166.74 160.083 167.113 159.473 167.472C159.155 167.635 158.836 167.811 158.511 167.967C158.186 168.123 157.833 168.265 157.501 168.394C154.568 169.435 151.49 170.006 148.379 170.088H147.904V169.736H148.006C148.006 169.424 148.006 170.163 148.006 170.088H147.525H146.942C146.555 170.088 146.169 170.048 145.79 170.021C145.024 169.966 144.265 169.885 143.526 169.763C142.076 169.548 140.652 169.184 139.276 168.679C137.999 168.176 136.779 167.537 135.637 166.774C134.525 166.096 133.475 165.385 132.479 164.741C128.5 162.091 125.396 159.915 123.553 158.641L122.624 157.055C122.543 156.893 122.468 156.764 122.414 156.656L122.346 156.52C122.346 156.52 122.387 156.52 122.441 156.642C122.496 156.764 122.59 156.866 122.685 157.022C122.916 157.381 123.221 157.875 123.607 158.499C125.484 159.753 128.616 161.888 132.607 164.504C133.611 165.159 134.668 165.837 135.779 166.537C136.903 167.286 138.106 167.911 139.365 168.401C140.722 168.889 142.126 169.241 143.553 169.451C144.285 169.567 145.031 169.655 145.79 169.709C146.162 169.709 146.549 169.756 146.928 169.77H147.504H147.979C147.979 169.695 147.979 170.448 147.979 170.122H147.877V169.77H148.338C151.41 169.697 154.451 169.143 157.352 168.13C157.691 168.008 158.03 167.852 158.341 167.716C158.653 167.581 158.972 167.398 159.283 167.242C159.887 166.896 160.47 166.564 161.039 166.157C162.171 165.426 163.235 164.687 164.251 163.995C168.284 161.183 171.388 158.919 173.157 157.652V157.686C173.387 157.049 173.564 156.554 173.692 156.188C173.74 156.011 173.796 155.837 173.862 155.666Z" fill="#263238"/>
<path d="M154.017 126.347C154.017 126.482 153.34 126.475 152.309 126.855C151.774 127.038 151.144 127.316 150.371 127.641C149.458 128.06 148.479 128.317 147.477 128.4H147.023C146.847 128.4 146.698 128.36 146.555 128.339C146.271 128.292 145.986 128.231 145.701 128.17C145.096 128.037 144.499 127.869 143.912 127.668C143.746 127.611 143.584 127.545 143.424 127.472C143.343 127.438 143.248 127.384 143.146 127.329C143.025 127.255 142.914 127.167 142.814 127.065C142.491 126.742 142.258 126.34 142.137 125.899C142.029 125.495 141.988 125.076 142.015 124.659C142.055 124.219 142.109 123.941 142.157 123.581C142.55 120.87 143.004 117.868 143.512 114.73C144.502 108.454 145.458 102.781 146.223 98.6879C146.989 94.5943 147.518 92.0664 147.755 92.0935C148.27 92.1613 147.267 102.443 145.268 115.001C144.78 118.146 144.278 121.101 143.797 123.812C143.642 124.356 143.598 124.925 143.668 125.486C143.708 125.674 143.791 125.851 143.912 126.001C143.953 125.954 143.512 126.401 143.716 126.198L143.831 126.082L143.878 126.028L144.014 126.103L144.373 126.272C144.888 126.482 145.444 126.658 145.973 126.814C146.237 126.896 146.494 126.963 146.738 127.024L147.077 127.092H147.409C148.283 127.075 149.15 126.924 149.978 126.645C150.665 126.431 151.364 126.259 152.072 126.13C153.36 125.987 154.045 126.245 154.017 126.347Z" fill="#263238"/>
<path d="M155.874 144.429C155.777 144.628 155.649 144.811 155.495 144.971C155.103 145.437 154.662 145.859 154.18 146.232C152.583 147.492 150.63 148.22 148.597 148.312C146.564 148.405 144.553 147.857 142.848 146.747C142.337 146.419 141.86 146.039 141.425 145.615C141.127 145.31 140.978 145.12 140.998 145.1C141.631 145.614 142.292 146.093 142.977 146.537C144.663 147.554 146.613 148.049 148.58 147.96C150.547 147.871 152.444 147.201 154.031 146.035C155.251 145.147 155.834 144.381 155.874 144.429Z" fill="#263238"/>
<path d="M194.601 73.53C194.212 74.1692 193.769 74.7746 193.279 75.3396C192.418 76.424 191.178 77.8811 189.748 79.4061C188.318 80.931 186.942 82.2933 185.925 83.2353C185.399 83.7675 184.828 84.2528 184.218 84.6857C184.691 84.1054 185.205 83.5595 185.756 83.0523C186.725 82.0696 188.054 80.7073 189.484 79.1689C190.914 77.6304 192.195 76.2003 193.089 75.1566C193.553 74.5789 194.058 74.0353 194.601 73.53Z" fill="#263238"/>
<path d="M149.734 68.4268C149.806 68.7311 149.842 69.0426 149.842 69.3553C149.89 70.033 149.944 70.8734 150.005 71.89C150.127 74.0317 150.276 76.9934 150.412 80.2602C150.547 83.5269 150.412 86.57 151.462 88.4405C151.843 89.1831 152.414 89.812 153.116 90.2637C153.617 90.5754 153.95 90.6432 153.936 90.6771C153.922 90.711 153.855 90.6771 153.699 90.6432C153.463 90.5827 153.236 90.4939 153.021 90.3789C152.261 89.9555 151.636 89.3258 151.218 88.5625C150.634 87.4226 150.306 86.169 150.256 84.8892C150.154 83.4659 150.107 81.9139 150.032 80.2737C149.897 77.007 149.788 74.0453 149.734 71.9036C149.734 70.8802 149.693 70.0262 149.68 69.362C149.673 69.0493 149.691 68.7366 149.734 68.4268Z" fill="#263238"/>
<path d="M144.99 68.4268C145.023 68.7376 145.023 69.0512 144.99 69.362C144.99 70.0398 144.99 70.8802 144.942 71.9036C144.881 74.0453 144.78 77.007 144.644 80.2737C144.563 81.9139 144.515 83.4659 144.42 84.8892C144.372 86.17 144.041 87.4243 143.451 88.5625C143.036 89.3251 142.413 89.9547 141.655 90.3789C141.44 90.4927 141.213 90.5814 140.977 90.6432C140.822 90.6771 140.74 90.6906 140.734 90.6771C140.727 90.6635 141.059 90.5754 141.56 90.2637C142.258 89.8092 142.826 89.1809 143.207 88.4405C144.278 86.57 144.075 83.5066 144.265 80.2602C144.454 77.0138 144.542 74.0317 144.664 71.89C144.732 70.8734 144.786 70.0195 144.827 69.3553C144.849 69.041 144.904 68.7299 144.99 68.4268Z" fill="#263238"/>
<g opacity="0.1">
<path d="M139.405 138.783C140.354 137.916 141.594 136.574 142.686 135.991C143.777 135.408 145.22 135.557 146.406 135.835C147.092 136.103 147.81 136.28 148.541 136.364C149.165 136.284 149.772 136.11 150.344 135.849C152.418 135.171 153.95 135.849 155.658 137.367C156.972 138.546 158.687 140.078 159.561 141.698C158.053 141.493 156.58 141.082 155.183 140.478C153.74 139.976 152.194 139.61 150.737 140.064C149.639 140.41 148.643 141.203 147.511 141.298C145.722 141.447 144.122 139.814 142.347 139.725C141.54 139.739 140.747 139.936 140.029 140.302C139.419 140.566 137.392 141.82 136.769 141.698C136.769 141.244 138.89 139.237 139.405 138.783Z" fill="black"/>
</g>
<path d="M101.011 74.4248C101.476 74.9745 101.902 75.5566 102.285 76.1666C103.044 77.2645 104.095 78.7759 105.294 80.4161C106.494 82.0562 107.599 83.5269 108.412 84.5842C108.877 85.1361 109.298 85.723 109.673 86.3395C109.143 85.8485 108.655 85.3135 108.215 84.7401C107.355 83.7235 106.182 82.2731 105.01 80.6262C103.837 78.9792 102.787 77.4408 102.075 76.3089C101.663 75.7153 101.306 75.0845 101.011 74.4248Z" fill="#263238"/>
<path d="M126.691 116.885C126.691 117.064 126.638 117.238 126.538 117.387C126.439 117.535 126.298 117.651 126.133 117.719C125.968 117.787 125.786 117.804 125.611 117.769C125.436 117.734 125.275 117.647 125.15 117.52C125.024 117.394 124.938 117.232 124.904 117.057C124.87 116.882 124.889 116.7 124.959 116.536C125.028 116.371 125.144 116.231 125.293 116.133C125.443 116.034 125.618 115.983 125.796 115.984C126.034 115.986 126.262 116.081 126.429 116.25C126.597 116.419 126.691 116.647 126.691 116.885Z" fill="white"/>
<path d="M171.917 116.885C171.917 117.064 171.864 117.238 171.764 117.387C171.665 117.535 171.524 117.651 171.359 117.719C171.193 117.787 171.012 117.804 170.837 117.769C170.662 117.734 170.501 117.647 170.375 117.52C170.25 117.394 170.164 117.232 170.13 117.057C170.096 116.882 170.115 116.7 170.184 116.536C170.254 116.371 170.37 116.231 170.519 116.133C170.668 116.034 170.843 115.983 171.022 115.984C171.26 115.986 171.487 116.081 171.655 116.25C171.823 116.419 171.917 116.647 171.917 116.885Z" fill="white"/>
<path d="M162.293 142.762C162.331 142.798 162.366 142.839 162.394 142.884C162.455 142.965 162.55 143.087 162.665 143.263C162.934 143.796 163.098 144.376 163.147 144.971C163.323 146.523 162.977 148.766 162.306 151.437C161.981 152.792 161.581 154.222 161.168 155.788C160.984 156.609 160.747 157.418 160.456 158.207C160.147 159.067 159.688 159.866 159.1 160.566C158.364 161.181 157.464 161.57 156.511 161.684C155.576 161.874 154.614 162.037 153.624 162.159C151.588 162.407 149.535 162.498 147.484 162.43C145.436 162.367 143.396 162.14 141.384 161.752C140.421 161.58 139.469 161.353 138.531 161.074C137.595 160.801 136.782 160.215 136.227 159.414C135.763 158.635 135.431 157.786 135.244 156.899C135.041 156.059 134.851 155.246 134.661 154.46C134.288 152.887 133.949 151.423 133.631 150.075C133.3 148.876 133.074 147.652 132.953 146.415C132.872 145.47 133.085 144.523 133.563 143.704C133.865 143.179 134.322 142.76 134.871 142.504C135.065 142.393 135.279 142.323 135.501 142.301C135.305 142.361 135.113 142.434 134.925 142.518C134.411 142.794 133.987 143.213 133.705 143.724C133.262 144.535 133.078 145.462 133.177 146.381C133.316 147.605 133.556 148.815 133.895 150C134.22 151.355 134.577 152.813 134.966 154.371C135.156 155.151 135.359 155.964 135.562 156.798C135.745 157.649 136.068 158.465 136.518 159.21C137.033 159.952 137.79 160.492 138.66 160.735C139.584 161.014 140.523 161.241 141.472 161.413C143.469 161.798 145.492 162.025 147.525 162.091C149.562 162.162 151.601 162.074 153.624 161.827C154.6 161.711 155.556 161.549 156.484 161.373C157.383 161.272 158.234 160.917 158.938 160.349C159.486 159.679 159.917 158.92 160.212 158.106C160.501 157.329 160.741 156.534 160.93 155.727L162.103 151.389C162.781 148.733 163.18 146.523 163.052 144.998C163.018 144.415 162.878 143.843 162.638 143.311C162.51 143.136 162.395 142.952 162.293 142.762Z" fill="white"/>
<path d="M136.911 159.922C136.003 160.699 135.017 161.38 133.97 161.955C132.99 162.641 131.943 163.225 130.845 163.697C131.755 162.923 132.741 162.242 133.787 161.664C134.77 160.984 135.816 160.401 136.911 159.922Z" fill="white"/>
<path d="M164.705 163.507C163.771 163.021 162.866 162.48 161.994 161.888C161.058 161.39 160.152 160.836 159.283 160.227C160.305 160.525 161.272 160.982 162.15 161.583C163.102 162.08 163.965 162.73 164.705 163.507Z" fill="white"/>
<path d="M142.584 146.462C142.725 144.115 143.718 141.9 145.376 140.234C145.458 140.295 144.502 141.508 143.736 143.236C142.97 144.964 142.686 146.482 142.584 146.462Z" fill="white"/>
<path d="M153.306 146.049C153.212 145.088 153.067 144.134 152.872 143.189C152.565 142.277 152.207 141.383 151.801 140.511C152.518 141.216 153.01 142.117 153.218 143.1C153.532 144.054 153.562 145.078 153.306 146.049Z" fill="white"/>
<path d="M162.191 142.762C162.191 142.829 161.771 142.823 161.052 142.687C160.058 142.467 159.078 142.186 158.118 141.847C156.736 141.35 155.304 141.007 153.848 140.823C153.014 140.726 152.171 140.738 151.34 140.857C150.407 141.105 149.461 141.307 148.507 141.46C147.5 141.447 146.502 141.259 145.559 140.905C144.748 140.709 143.911 140.643 143.079 140.708C141.619 140.836 140.179 141.134 138.789 141.596C137.817 141.907 136.825 142.152 135.82 142.328C135.095 142.429 134.688 142.409 134.681 142.328C134.675 142.246 135.047 142.131 135.725 141.908C136.403 141.684 137.352 141.331 138.551 140.871C139.976 140.286 141.474 139.898 143.004 139.718C143.942 139.622 144.89 139.679 145.81 139.888C146.655 140.192 147.542 140.361 148.44 140.389C149.294 140.342 150.188 139.962 151.184 139.82C152.108 139.691 153.046 139.691 153.97 139.82C155.488 140.056 156.969 140.489 158.375 141.108C159.561 141.609 160.503 142.002 161.168 142.26C161.832 142.518 162.205 142.687 162.191 142.762Z" fill="#263238"/>
<path d="M185.072 52.0117C185.072 52.0117 185.017 52.1269 184.875 52.3303L184.265 53.2045L181.954 56.3764L174.234 66.7526L169.05 73.6182V73.5165C169.294 76.3631 169.497 78.7623 169.646 80.5041C169.707 81.3106 169.755 81.968 169.788 82.4695C169.812 82.6948 169.812 82.922 169.788 83.1473C169.734 82.9248 169.697 82.6981 169.68 82.4695C169.619 81.968 169.544 81.3106 169.45 80.5041C169.267 78.7691 169.023 76.3698 168.731 73.5301V73.4691L168.765 73.4216L173.916 66.5222L181.757 56.2273L184.157 53.13C184.421 52.7911 184.645 52.5132 184.834 52.2964C184.903 52.1931 184.982 52.0976 185.072 52.0117Z" fill="white"/>
<path d="M111.319 51.5374C111.319 51.5374 111.414 51.6255 111.57 51.8152L112.248 52.6489L114.64 55.7529L122.448 66.0614L127.599 72.9608L127.64 73.0083V73.0693C127.341 75.909 127.097 78.3082 126.914 80.0433C126.819 80.8566 126.745 81.5072 126.691 82.0087C126.67 82.2372 126.631 82.4638 126.575 82.6865C126.552 82.4612 126.552 82.234 126.575 82.0087C126.616 81.514 126.664 80.8566 126.718 80.0433C126.867 78.3015 127.07 75.9022 127.314 73.0557L127.348 73.1642L122.163 66.2918L114.437 55.9156L112.126 52.7437L111.516 51.8694C111.44 51.7652 111.374 51.654 111.319 51.5374Z" fill="white"/>
<path d="M174.031 107.776C172.901 107.778 171.796 107.444 170.855 106.817C169.915 106.19 169.181 105.298 168.748 104.254C168.314 103.21 168.2 102.061 168.42 100.953C168.64 99.8438 169.183 98.8251 169.982 98.0254C170.781 97.2257 171.799 96.6809 172.907 96.4599C174.016 96.2389 175.165 96.3516 176.209 96.7839C177.254 97.2161 178.146 97.9484 178.774 98.8881C179.403 99.8278 179.738 100.933 179.738 102.063C179.736 103.577 179.134 105.028 178.065 106.099C176.995 107.169 175.545 107.773 174.031 107.776ZM174.031 97.0341C173.035 97.0328 172.06 97.3272 171.231 97.88C170.402 98.4328 169.755 99.2192 169.373 100.14C168.991 101.06 168.891 102.073 169.085 103.051C169.279 104.028 169.759 104.926 170.464 105.63C171.168 106.335 172.066 106.815 173.044 107.009C174.021 107.203 175.034 107.103 175.955 106.721C176.875 106.339 177.661 105.692 178.214 104.863C178.767 104.034 179.061 103.06 179.06 102.063C179.058 100.73 178.528 99.4517 177.585 98.509C176.642 97.5663 175.364 97.0359 174.031 97.0341Z" fill="#263238"/>
<path d="M170.066 101.778C170.105 102.846 170.559 103.857 171.33 104.596C172.102 105.335 173.132 105.744 174.201 105.736C174.724 105.755 175.247 105.669 175.737 105.483C176.226 105.297 176.674 105.015 177.053 104.653C177.432 104.291 177.735 103.857 177.943 103.376C178.152 102.895 178.262 102.377 178.267 101.853C178.228 100.785 177.775 99.7742 177.003 99.0352C176.231 98.2962 175.201 97.8872 174.133 97.8949C173.609 97.8759 173.087 97.962 172.597 98.1481C172.107 98.3342 171.659 98.6166 171.28 98.9786C170.901 99.3406 170.598 99.7748 170.39 100.256C170.181 100.737 170.071 101.254 170.066 101.778Z" fill="#5CFEF8"/>
<g opacity="0.3">
<path d="M162.32 104.794C159.954 103.093 157.575 101.304 155.969 98.8505C154.363 96.3971 153.8 93.1168 155.156 90.5549C156.315 88.4268 158.606 87.1662 160.842 86.2512C167.197 83.6082 174.089 82.5096 180.951 83.0455C182.76 83.1878 184.678 83.4928 186.007 84.7263C187.911 86.4885 187.932 89.5383 187.159 92.0188C186.386 94.4994 184.97 96.7631 184.448 99.3114C181.778 95.4482 176.105 94.6282 171.734 96.3429C167.362 98.0575 165.098 101.013 162.32 104.794Z" fill="black"/>
</g>
<path d="M185.444 99.3454C185.255 99.5487 184.041 98.4846 181.757 97.5358C180.434 96.9811 179.037 96.6204 177.61 96.465C174.126 96.0389 170.615 97.0141 167.85 99.1759C166.707 100.047 165.694 101.076 164.841 102.233C163.37 104.218 162.882 105.757 162.611 105.676C162.34 105.594 162.469 103.927 163.797 101.548C165.164 99.1242 167.246 97.1812 169.758 95.984C172.27 94.7868 175.09 94.3939 177.833 94.8587C179.404 95.1109 180.919 95.6386 182.306 96.4175C184.665 97.7662 185.593 99.2166 185.444 99.3454Z" fill="#263238"/>
<path d="M186.02 84.7263C185.844 84.9568 184.279 83.8385 181.276 83.3708C177.366 82.8069 173.386 82.9469 169.524 83.7843C167.383 84.2134 165.274 84.7932 163.214 85.5193C161.556 86.1051 159.982 86.9048 158.531 87.8982C157.284 88.7521 156.315 89.5586 155.603 90.0669C154.892 90.5752 154.465 90.826 154.383 90.7447C154.302 90.6633 154.573 90.2432 155.136 89.5722C155.941 88.6164 156.822 87.7279 157.772 86.9154C159.221 85.6976 160.854 84.7184 162.611 84.0147C164.728 83.1621 166.92 82.5086 169.158 82.0628C173.943 81.0868 178.436 81.2834 181.547 82.1577C182.788 82.4747 183.964 83.0044 185.024 83.7233C185.776 84.2316 186.081 84.645 186.02 84.7263Z" fill="#263238"/>
<path d="M90.0451 93.2456C90.1847 93.4256 90.2988 93.624 90.384 93.8352C90.5805 94.2216 90.8313 94.8044 91.1092 95.5296C92.5442 99.3528 93.0099 103.472 92.4647 107.519C92.3843 108.128 92.2712 108.732 92.1258 109.328C92.0938 109.563 92.0276 109.791 91.9292 110.006C91.8682 110.006 92.0648 109.051 92.2139 107.519C92.6234 103.51 92.1729 99.4592 90.8923 95.638C90.384 94.1809 89.9909 93.2727 90.0451 93.2456Z" fill="#263238"/>
<path d="M94.3691 100.586C94.3691 100.687 93.9489 100.707 93.4609 100.735C92.973 100.762 92.5731 100.782 92.546 100.68C92.5189 100.579 92.9187 100.409 93.4474 100.382C93.976 100.355 94.3827 100.491 94.3691 100.586Z" fill="#263238"/>
<path d="M124.935 108.766C124.712 108.766 124.495 108.766 124.258 108.732C123.141 108.606 122.087 108.151 121.229 107.425C120.372 106.699 119.748 105.735 119.439 104.655C119.129 103.575 119.146 102.427 119.489 101.357C119.831 100.287 120.484 99.3425 121.363 98.6432C122.243 97.944 123.31 97.5213 124.43 97.4287C125.55 97.3362 126.672 97.5778 127.654 98.1232C128.637 98.6685 129.435 99.493 129.949 100.492C130.463 101.492 130.669 102.621 130.54 103.737C130.381 105.119 129.72 106.394 128.683 107.321C127.647 108.248 126.306 108.762 124.915 108.766H124.935ZM124.935 98.0916C123.99 98.087 123.064 98.3505 122.263 98.8515C121.461 99.3525 120.819 100.07 120.409 100.922C120 101.774 119.84 102.724 119.949 103.662C120.058 104.601 120.431 105.489 121.025 106.225C121.855 107.256 123.059 107.917 124.375 108.063C125.69 108.209 127.01 107.828 128.046 107.004C128.561 106.595 128.99 106.089 129.308 105.515C129.627 104.94 129.829 104.309 129.903 103.656C130.052 102.339 129.673 101.016 128.848 99.9784C128.024 98.9405 126.821 98.2718 125.505 98.1187C125.309 98.0992 125.112 98.0902 124.915 98.0916H124.935Z" fill="#263238"/>
<path d="M129.009 102.91C129.009 103.976 128.591 104.999 127.844 105.76C127.097 106.52 126.082 106.957 125.017 106.977C124.495 107.013 123.971 106.945 123.476 106.776C122.981 106.607 122.525 106.341 122.135 105.993C121.744 105.645 121.428 105.222 121.203 104.75C120.979 104.277 120.851 103.765 120.828 103.242C120.838 102.18 121.26 101.163 122.004 100.404C122.749 99.646 123.758 99.2057 124.82 99.1759C125.342 99.1402 125.865 99.209 126.36 99.3783C126.854 99.5476 127.31 99.814 127.7 100.162C128.09 100.51 128.407 100.932 128.632 101.404C128.856 101.876 128.985 102.388 129.009 102.91Z" fill="#5CFEF8"/>
<path d="M141.276 90.4398C141.039 90.6092 139.92 89.0843 137.209 87.661C133.672 85.9 129.848 84.7846 125.918 84.3672C123.749 84.0992 121.563 83.9882 119.378 84.0351C117.621 84.0727 115.876 84.3369 114.186 84.8213C112.736 85.2483 111.563 85.7024 110.73 85.9667C109.896 86.231 109.408 86.3327 109.374 86.2174C109.34 86.1022 109.713 85.804 110.459 85.3432C111.525 84.6877 112.643 84.1188 113.8 83.642C115.561 82.9454 117.42 82.5292 119.31 82.4085C121.587 82.2701 123.871 82.3381 126.135 82.6118C130.988 83.1879 135.196 84.7874 137.874 86.5902C138.953 87.279 139.905 88.1505 140.686 89.1656C141.201 89.8976 141.364 90.3856 141.276 90.4398Z" fill="#263238"/>
<g opacity="0.3">
<path d="M112.458 102.07C110.743 99.7046 109.022 97.2579 108.29 94.4317C107.558 91.6055 107.999 88.2913 110.133 86.2988C111.902 84.6451 114.464 84.1842 116.911 84.0012C123.777 83.486 130.668 84.6031 137.02 87.2612C138.687 87.9389 140.408 88.8606 141.289 90.4398C142.55 92.717 141.608 95.6178 140.096 97.7323C138.585 99.8469 136.525 101.555 135.217 103.832C133.895 99.325 128.771 96.7699 124.081 97.0546C119.391 97.3392 116.314 99.3996 112.492 102.124" fill="black"/>
</g>
<path d="M113.082 103.446C112.98 103.398 113.034 102.958 113.332 102.212C113.796 101.164 114.465 100.22 115.298 99.4333C116.539 98.2546 118.025 97.3637 119.649 96.824C120.6 96.4841 121.587 96.2567 122.59 96.1462C123.674 96.0144 124.77 96.0281 125.85 96.1869C127.737 96.4539 129.541 97.1405 131.127 98.196C132.714 99.2516 134.044 100.649 135.02 102.287C135.606 103.252 136.036 104.305 136.294 105.404C136.464 106.177 136.443 106.624 136.335 106.651C136.057 106.739 135.562 105.086 133.983 102.978C133.061 101.768 131.949 100.715 130.689 99.8603C129.155 98.8443 127.414 98.1801 125.593 97.9151C124.655 97.7744 123.703 97.7516 122.76 97.8474C121.873 97.9185 120.996 98.0821 120.144 98.3353C118.687 98.757 117.322 99.4465 116.118 100.369C114.051 101.968 113.353 103.574 113.082 103.446Z" fill="#263238"/>
<path d="M148.873 51.3882H146.115V60.6936H148.873V51.3882Z" fill="#5CFEF8"/>
<path d="M149.958 164.863H147.199V167.242H149.958V164.863Z" fill="#5CFEF8"/>
<path d="M149.802 150.312H147.043V157.286H149.802V150.312Z" fill="#5CFEF8"/>
<path d="M176.485 101.819C176.485 102.306 176.34 102.782 176.069 103.187C175.799 103.591 175.414 103.907 174.964 104.093C174.514 104.279 174.019 104.327 173.542 104.232C173.064 104.136 172.626 103.901 172.282 103.556C171.938 103.212 171.705 102.773 171.611 102.295C171.516 101.817 171.566 101.322 171.753 100.873C171.941 100.423 172.257 100.04 172.662 99.7702C173.068 99.5007 173.544 99.3576 174.031 99.3589C174.354 99.3589 174.673 99.4226 174.972 99.5463C175.27 99.67 175.54 99.8513 175.768 100.08C175.996 100.308 176.177 100.58 176.3 100.878C176.423 101.177 176.485 101.496 176.485 101.819Z" fill="white"/>
<path d="M190.839 102.063C190.832 101.973 190.832 101.882 190.839 101.792C190.839 101.596 190.805 101.324 190.778 100.986C190.778 100.809 190.778 100.606 190.738 100.396C190.697 100.186 190.67 99.9419 190.629 99.7182C190.552 99.1275 190.432 98.5431 190.27 97.9697C189.873 96.385 189.238 94.8699 188.386 93.4762C186.374 90.1161 183.255 87.5621 179.564 86.2534C175.872 84.9447 171.841 84.9632 168.162 86.3057C167.412 86.5786 166.681 86.9 165.973 87.2681C165.264 87.6719 164.585 88.1248 163.94 88.6236C163.268 89.122 162.63 89.663 162.028 90.2434C161.438 90.8564 160.89 91.5085 160.388 92.1953C159.341 93.5979 158.528 95.1612 157.982 96.8243C156.826 100.263 156.826 103.986 157.982 107.424C158.529 109.088 159.339 110.653 160.381 112.06C160.888 112.743 161.438 113.393 162.028 114.005C162.63 114.588 163.268 115.131 163.94 115.632C164.586 116.119 165.265 116.561 165.973 116.953C166.678 117.327 167.41 117.649 168.162 117.916C171.845 119.242 175.876 119.246 179.562 117.927C183.248 116.607 186.36 114.047 188.365 110.684C189.218 109.291 189.853 107.775 190.25 106.191C190.412 105.617 190.532 105.033 190.609 104.442C190.649 104.191 190.697 103.954 190.717 103.764C190.738 103.575 190.717 103.351 190.758 103.175C190.758 102.829 190.805 102.565 190.819 102.368C190.812 102.276 190.812 102.183 190.819 102.09C190.826 102.183 190.826 102.276 190.819 102.368C190.819 102.565 190.819 102.836 190.819 103.175C190.819 103.358 190.819 103.554 190.819 103.771C190.819 103.988 190.758 104.232 190.724 104.49C190.663 105.085 190.554 105.674 190.399 106.252C190.019 107.858 189.395 109.396 188.548 110.813C187.313 112.903 185.646 114.707 183.66 116.103C181.673 117.5 179.412 118.457 177.027 118.912C174.016 119.47 170.911 119.213 168.033 118.166C167.266 117.891 166.518 117.563 165.797 117.184C165.061 116.786 164.356 116.333 163.689 115.828C163.003 115.325 162.353 114.774 161.744 114.181C161.136 113.559 160.573 112.895 160.056 112.196C158.988 110.756 158.16 109.154 157.603 107.451C156.415 103.934 156.415 100.124 157.603 96.6074C158.163 94.9055 158.991 93.3039 160.056 91.8632C160.574 91.1649 161.138 90.5015 161.744 89.8774C162.355 89.2863 163.005 88.7362 163.689 88.2305C164.36 87.7323 165.065 87.2794 165.797 86.875C166.519 86.4984 167.266 86.1723 168.033 85.899C170.915 84.8582 174.022 84.6078 177.034 85.1739C179.422 85.6314 181.686 86.5936 183.673 87.9961C185.66 89.3987 187.324 91.2092 188.555 93.3068C189.402 94.7211 190.026 96.2572 190.405 97.8612C190.561 98.4412 190.67 99.0328 190.731 99.6301C190.765 99.8877 190.812 100.125 190.826 100.342C190.839 100.559 190.826 100.762 190.826 100.938C190.826 101.284 190.826 101.548 190.826 101.751C190.84 101.855 190.845 101.959 190.839 102.063Z" fill="#5CFEF8"/>
<path d="M189.118 102.063C189.11 102.002 189.11 101.941 189.118 101.88C189.118 101.738 189.118 101.562 189.07 101.338C189.023 101.114 189.03 100.796 189.009 100.457C188.989 100.118 188.88 99.7113 188.806 99.2708C188.731 98.8302 188.575 98.3423 188.447 97.8068C188.318 97.2714 188.06 96.7292 187.837 96.126C187.238 94.8027 186.473 93.5613 185.56 92.4323C184.422 91.0854 183.066 89.9398 181.547 89.0436C179.712 87.9719 177.673 87.2974 175.561 87.0639C173.449 86.8304 171.311 87.0431 169.287 87.6881C167.003 88.4192 164.927 89.6849 163.23 91.38C161.534 93.0751 160.267 95.1507 159.534 97.4341C158.889 99.4598 158.676 101.598 158.91 103.712C159.143 105.825 159.818 107.865 160.89 109.701C161.786 111.219 162.931 112.576 164.278 113.713C165.41 114.627 166.653 115.393 167.979 115.991C168.575 116.214 169.124 116.452 169.66 116.601C170.195 116.75 170.669 116.899 171.117 116.96L172.303 117.163L173.184 117.224L173.726 117.272H173.909C173.848 117.279 173.787 117.279 173.726 117.272H173.177C172.94 117.272 172.642 117.272 172.296 117.272L171.09 117.102C170.636 117.048 170.154 116.892 169.612 116.77C169.07 116.648 168.507 116.397 167.898 116.18C166.546 115.591 165.277 114.827 164.122 113.91C162.74 112.764 161.566 111.389 160.652 109.844C159.592 108.073 158.9 106.107 158.619 104.062C158.318 101.801 158.517 99.5015 159.202 97.3256C159.954 95.0011 161.249 92.8888 162.979 91.1635C164.709 89.4382 166.825 88.1494 169.151 87.4035C171.327 86.7186 173.627 86.5196 175.888 86.8206C177.933 87.1014 179.899 87.7931 181.669 88.8538C183.214 89.7677 184.59 90.9417 185.736 92.3239C186.653 93.4784 187.416 94.7474 188.006 96.0989C188.223 96.7089 188.453 97.2714 188.596 97.8136C188.738 98.3558 188.874 98.837 188.928 99.2911C188.982 99.7452 189.05 100.138 189.097 100.491C189.145 100.843 189.097 101.168 189.131 101.379C189.165 101.589 189.131 101.785 189.131 101.928C189.131 101.973 189.126 102.018 189.118 102.063Z" fill="#5CFEF8"/>
<path d="M177.779 108.854H176.376V110.426H177.779V108.854Z" fill="#5CFEF8"/>
<path d="M175.651 108.854H174.248V110.426H175.651V108.854Z" fill="#5CFEF8"/>
<path d="M186.664 108.854H178.274V110.426H186.664V108.854Z" fill="#5CFEF8"/>
<path d="M189.518 111.714H181.127V113.286H189.518V111.714Z" fill="#5CFEF8"/>
<path d="M180.693 111.714H178.477V113.286H180.693V111.714Z" fill="#5CFEF8"/>
<path d="M74.5451 240.289L106.548 305H189.362L222.625 227.934L74.5451 240.289Z" fill="#263238"/>
<path d="M245.296 216.426C245.296 216.426 219.792 194.738 186.054 194.447C186.054 194.447 201.053 203.101 195.414 213.132C189.775 223.163 165.776 237.714 165.322 238.127C164.868 238.541 154.776 245.406 148.121 246.782V295.546C148.121 295.546 161.412 297.199 171.971 290.469C182.53 283.739 201.331 281.53 201.331 281.53C201.331 281.53 231.734 244.566 237.4 234.684C244.557 222.275 245.296 216.426 245.296 216.426Z" fill="#E0E0E0"/>
<path d="M48.9806 216.426C48.9806 216.426 74.4841 194.738 108.222 194.447C108.222 194.447 93.2305 203.101 98.8693 213.132C104.508 223.163 128.514 237.714 128.948 238.127C129.381 238.541 139.5 245.406 146.149 246.782V295.546C146.149 295.546 132.858 297.199 122.306 290.469C111.753 283.739 92.9391 281.53 92.9391 281.53C92.9391 281.53 62.5355 244.566 56.8831 234.684C49.7329 222.275 48.9806 216.426 48.9806 216.426Z" fill="#E0E0E0"/>
<path d="M140.862 295.051C140.852 294.872 140.852 294.694 140.862 294.515C140.862 294.129 140.862 293.621 140.828 292.984C140.828 291.628 140.828 289.697 140.774 287.331C140.774 282.533 140.774 275.945 140.72 268.639L140.781 268.775L140.395 268.422L130.669 259.611L130.615 259.557V259.489C130.886 255.423 131.103 251.967 131.293 249.52C131.381 248.347 131.448 247.405 131.496 246.728C131.496 246.429 131.55 246.185 131.564 245.989C131.569 245.904 131.583 245.82 131.604 245.738C131.616 245.823 131.616 245.91 131.604 245.996C131.604 246.185 131.604 246.429 131.604 246.734C131.604 247.412 131.537 248.354 131.482 249.533C131.36 251.98 131.177 255.409 130.967 259.503L130.913 259.381C133.766 261.956 137.114 264.972 140.673 268.192L141.059 268.537L141.12 268.592V268.666C141.12 275.972 141.079 282.56 141.066 287.358C141.066 289.724 141.018 291.642 141.011 293.011C141.011 293.648 141.011 294.156 140.978 294.542C140.956 294.715 140.917 294.885 140.862 295.051Z" fill="#263238"/>
<path d="M155.739 295.051C155.708 294.874 155.697 294.694 155.705 294.515C155.705 294.129 155.705 293.621 155.671 292.984C155.671 291.628 155.637 289.697 155.617 287.331C155.617 282.533 155.583 275.945 155.563 268.639V268.564L155.617 268.51L156.003 268.165C159.561 264.945 162.909 261.929 165.763 259.354L165.715 259.476C165.498 255.409 165.322 251.953 165.193 249.506C165.139 248.327 165.098 247.385 165.071 246.707C165.071 246.402 165.071 246.158 165.071 245.968C165.064 245.883 165.064 245.797 165.071 245.711C165.071 245.711 165.071 245.799 165.112 245.962C165.153 246.124 165.153 246.402 165.18 246.7C165.227 247.378 165.302 248.32 165.383 249.493C165.546 251.939 165.769 255.369 166.061 259.462V259.53L166.007 259.584L156.274 268.395L155.888 268.747L155.949 268.612C155.949 275.918 155.908 282.506 155.895 287.304C155.895 289.669 155.854 291.587 155.84 292.956C155.84 293.594 155.84 294.102 155.84 294.488C155.823 294.678 155.789 294.867 155.739 295.051Z" fill="#263238"/>
<path d="M230.426 206.646C230.395 206.711 230.357 206.773 230.311 206.829L229.931 207.351C229.572 207.818 229.077 208.482 228.44 209.323C227.126 211.044 225.241 213.511 222.917 216.541C218.22 222.641 211.741 231.017 204.618 240.262L201.514 244.267L201.547 244.159C201.547 254.684 201.507 264.01 201.493 270.74C201.493 274.074 201.453 276.758 201.439 278.642C201.439 279.551 201.439 280.262 201.405 280.771V281.326C201.414 281.387 201.414 281.449 201.405 281.509C201.405 281.509 201.405 281.448 201.405 281.326C201.405 281.204 201.405 281.001 201.405 280.771C201.405 280.262 201.405 279.551 201.371 278.642C201.371 276.758 201.337 274.074 201.317 270.74C201.317 264.01 201.283 254.684 201.263 244.159V244.098V244.05C202.252 242.77 203.296 241.421 204.36 240.045L222.768 216.371L228.352 209.235L229.891 207.303L230.304 206.808C230.338 206.749 230.379 206.695 230.426 206.646Z" fill="#263238"/>
<path d="M160.802 272.577H158.619V288.788H160.802V272.577Z" fill="#5CFEF8"/>
<path d="M127.978 252.149H125.091V258.507H127.978V252.149Z" fill="#5CFEF8"/>
<path d="M217.563 201.265C217.563 201.265 217.475 201.366 217.285 201.529L216.444 202.207L213.32 204.646L213.266 204.694H213.198L204.584 202.213C200.768 201.095 197.318 200.065 194.831 199.306L191.883 198.384C191.517 198.288 191.161 198.159 190.819 197.998C191.193 198.054 191.562 198.137 191.924 198.249L194.899 199.062C197.407 199.74 200.87 200.756 204.685 201.874L213.279 204.43H213.157L216.349 202.085L217.237 201.454C217.339 201.38 217.448 201.317 217.563 201.265Z" fill="#263238"/>
<path d="M205.994 244.091L207.688 245.331L221.189 227.595L219.548 226.151L205.994 244.091Z" fill="white"/>
<path d="M224.205 224.125C224.218 224.365 224.159 224.603 224.036 224.809C223.912 225.016 223.729 225.18 223.511 225.281C223.293 225.382 223.05 225.415 222.813 225.376C222.576 225.338 222.356 225.228 222.181 225.063C222.007 224.897 221.886 224.683 221.835 224.449C221.784 224.214 221.804 223.969 221.894 223.746C221.983 223.523 222.138 223.332 222.337 223.198C222.536 223.063 222.771 222.992 223.012 222.993C223.32 222.986 223.618 223.101 223.842 223.313C224.065 223.525 224.196 223.817 224.205 224.125Z" fill="white"/>
<path d="M64.8533 206.836C64.8533 206.836 64.9075 206.89 65.0024 206.998L65.4091 207.493L66.9476 209.431L72.5593 216.582C77.3035 222.681 83.7895 231.018 90.9668 240.255L94.0709 244.261V244.308V244.369C94.0709 254.895 94.0302 264.22 94.0099 270.95C94.0099 274.285 93.9692 276.969 93.9624 278.853C93.9624 279.761 93.9624 280.473 93.9624 280.981V281.537C93.9707 281.6 93.9707 281.663 93.9624 281.726C93.9525 281.664 93.9525 281.599 93.9624 281.537C93.9624 281.394 93.9624 281.211 93.9624 280.981C93.9624 280.473 93.9624 279.761 93.9624 278.853C93.9624 276.969 93.9624 274.285 93.9082 270.95C93.9082 264.22 93.8743 254.895 93.8472 244.369L93.8879 244.478L90.7838 240.472L72.4847 216.751L66.9611 209.533L65.4769 207.561L65.0973 207.039C64.9301 206.912 64.8488 206.845 64.8533 206.836Z" fill="#263238"/>
<path d="M77.7169 201.454C77.8346 201.507 77.946 201.573 78.049 201.651C78.2862 201.827 78.5845 202.03 78.9369 202.281L82.1291 204.626H82.0071L90.6009 202.071C94.4166 200.953 97.873 199.963 100.387 199.258L103.363 198.445C103.724 198.334 104.093 198.25 104.468 198.194C104.123 198.356 103.765 198.486 103.397 198.581L100.455 199.502C97.9611 200.261 94.5114 201.292 90.6957 202.41L82.0816 204.89H82.0138L81.9596 204.843L78.842 202.403C78.5031 202.132 78.2253 201.908 78.0016 201.725C77.7779 201.542 77.7102 201.468 77.7169 201.454Z" fill="#263238"/>
<path d="M89.2928 244.281L87.5984 245.521L74.0978 227.785L75.7311 226.341L89.2928 244.281Z" fill="white"/>
<path d="M72.2746 225.453C72.9334 225.453 73.4674 224.943 73.4674 224.314C73.4674 223.686 72.9334 223.176 72.2746 223.176C71.6158 223.176 71.0818 223.686 71.0818 224.314C71.0818 224.943 71.6158 225.453 72.2746 225.453Z" fill="white"/>
<path d="M133.746 212.44C133.746 212.44 142.692 218.106 149.26 217.862C155.827 217.618 164.278 211.844 164.278 211.844L157.908 233.417L140.49 232.956L133.746 212.44Z" fill="#455A64"/>
<path d="M130.649 235.104C130.649 235.104 126.413 243.386 132.424 245.386C133.315 245.66 134.252 245.748 135.178 245.643C136.104 245.539 136.999 245.245 137.806 244.779C138.613 244.314 139.315 243.687 139.869 242.937C140.423 242.188 140.817 241.333 141.025 240.425C141.649 237.93 142.13 235.192 141.655 234C140.673 231.546 133.048 203.82 132.336 199.218C132.147 198.038 130.459 191.525 130.256 190.597C129.287 186.253 122.706 187.466 122.699 191.918C122.699 193.233 122.848 197.849 122.95 198.696C124.353 210.15 126.06 216.141 127.49 222.132C129.307 229.723 130.649 235.111 130.649 235.111" fill="#455A64"/>
<path d="M130.649 235.104C130.649 235.104 130.615 234.996 130.554 234.779C130.493 234.562 130.412 234.237 130.303 233.83C130.086 232.976 129.774 231.742 129.381 230.17C128.588 226.964 127.443 222.362 126.04 216.676C125.362 213.823 124.685 210.685 124.068 207.283C123.765 205.584 123.485 203.822 123.227 201.996C122.92 200.126 122.73 198.238 122.658 196.344C122.624 195.375 122.59 194.392 122.557 193.403C122.557 192.901 122.557 192.406 122.557 191.898L122.624 191.098C122.685 190.841 122.767 190.59 122.841 190.332C123.281 189.337 124.075 188.54 125.07 188.096C126.064 187.653 127.188 187.595 128.222 187.933C128.748 188.13 129.217 188.451 129.591 188.869C129.965 189.287 130.233 189.789 130.371 190.332C130.656 191.376 130.9 192.42 131.171 193.477C131.686 195.598 132.275 197.733 132.668 199.943C133.597 204.307 134.742 208.537 135.806 212.617C136.87 216.697 137.955 220.627 138.992 224.362L140.537 229.784C140.804 230.687 141.061 231.555 141.31 232.386C141.438 232.813 141.567 233.234 141.716 233.64C141.796 233.862 141.862 234.088 141.913 234.318C141.964 234.54 141.991 234.767 141.994 234.996C141.975 236.673 141.748 238.342 141.316 239.964C141.018 241.507 140.234 242.915 139.08 243.983C138.539 244.473 137.929 244.882 137.27 245.196C136.637 245.474 135.969 245.666 135.285 245.765C134.016 245.908 132.733 245.672 131.598 245.087C131.101 244.841 130.658 244.5 130.294 244.082C129.93 243.665 129.652 243.179 129.476 242.654C129.198 241.779 129.105 240.856 129.205 239.943C129.342 238.684 129.654 237.449 130.134 236.277C130.296 235.877 130.432 235.599 130.534 235.375C130.58 235.275 130.632 235.178 130.689 235.084L130.567 235.389C130.479 235.592 130.351 235.897 130.201 236.304C129.756 237.476 129.467 238.702 129.341 239.95C129.252 240.848 129.351 241.756 129.632 242.613C129.803 243.113 130.07 243.575 130.419 243.971C130.768 244.368 131.191 244.692 131.665 244.925C132.769 245.47 134.009 245.68 135.23 245.528C135.891 245.431 136.534 245.242 137.142 244.965C137.776 244.658 138.363 244.261 138.883 243.786C139.991 242.746 140.741 241.382 141.025 239.889C141.453 238.292 141.68 236.649 141.703 234.996C141.689 234.576 141.599 234.163 141.438 233.776C141.283 233.356 141.154 232.929 141.025 232.502L140.246 229.919C139.744 228.157 139.222 226.334 138.687 224.497C137.636 220.763 136.565 216.832 135.481 212.752C134.397 208.672 133.265 204.45 132.33 200.058C131.943 197.862 131.347 195.727 130.839 193.613C130.567 192.562 130.317 191.498 130.039 190.475C129.919 189.983 129.68 189.528 129.343 189.15C129.006 188.772 128.582 188.482 128.107 188.306C127.156 188.001 126.126 188.058 125.213 188.464C124.301 188.87 123.57 189.598 123.16 190.509C122.881 191.451 122.796 192.44 122.909 193.416C122.943 194.412 122.97 195.388 123.004 196.357C123.069 198.24 123.254 200.117 123.56 201.976C123.813 203.783 124.084 205.543 124.373 207.256C124.949 210.644 125.627 213.796 126.298 216.649L129.531 230.163C129.903 231.749 130.208 232.983 130.391 233.837C130.486 234.25 130.561 234.569 130.608 234.799C130.656 235.03 130.649 235.104 130.649 235.104Z" fill="#263238"/>
<path d="M129.307 192.704C129.308 193.195 129.164 193.676 128.892 194.084C128.62 194.493 128.233 194.812 127.78 195.001C127.327 195.19 126.828 195.24 126.346 195.145C125.865 195.05 125.422 194.814 125.075 194.468C124.727 194.121 124.49 193.679 124.394 193.198C124.298 192.716 124.346 192.217 124.534 191.764C124.721 191.31 125.039 190.922 125.447 190.649C125.855 190.376 126.335 190.231 126.826 190.231C127.152 190.23 127.474 190.293 127.775 190.417C128.076 190.541 128.349 190.723 128.58 190.953C128.81 191.183 128.993 191.456 129.118 191.756C129.243 192.057 129.307 192.379 129.307 192.704Z" fill="#263238"/>
<path d="M134.742 242.763C136.109 242.763 137.216 241.655 137.216 240.289C137.216 238.923 136.109 237.815 134.742 237.815C133.376 237.815 132.269 238.923 132.269 240.289C132.269 241.655 133.376 242.763 134.742 242.763Z" fill="#263238"/>
<path d="M139.52 237.91C138.165 237.689 136.832 237.351 135.535 236.9C134.202 236.561 132.9 236.107 131.645 235.545C133.001 235.77 134.337 236.108 135.637 236.555C136.968 236.894 138.267 237.348 139.52 237.91Z" fill="#263238"/>
<path d="M131.787 218.439C132.457 218.439 133.001 217.895 133.001 217.225C133.001 216.555 132.457 216.012 131.787 216.012C131.117 216.012 130.574 216.555 130.574 217.225C130.574 217.895 131.117 218.439 131.787 218.439Z" fill="#263238"/>
<path d="M136.857 231.011C136.856 231.25 136.783 231.484 136.649 231.683C136.515 231.881 136.325 232.036 136.103 232.127C135.881 232.217 135.638 232.241 135.403 232.193C135.168 232.145 134.952 232.029 134.783 231.859C134.614 231.689 134.5 231.473 134.453 231.238C134.407 231.003 134.432 230.759 134.524 230.538C134.616 230.317 134.771 230.128 134.97 229.995C135.17 229.862 135.404 229.791 135.644 229.791C135.804 229.791 135.962 229.822 136.11 229.884C136.257 229.945 136.391 230.035 136.504 230.148C136.617 230.262 136.706 230.396 136.766 230.544C136.827 230.692 136.858 230.851 136.857 231.011Z" fill="#263238"/>
<path d="M167.532 236.541C167.532 236.541 172.12 244.633 166.176 246.89C162.523 248.28 158.484 246.05 157.365 242.302C156.64 239.835 156.01 237.124 156.464 235.904C157.345 233.41 163.784 205.405 164.299 200.763C164.434 199.57 165.844 192.996 166.013 192.061C166.8 187.682 173.421 188.611 173.618 193.057C173.672 194.372 173.719 198.987 173.652 199.834C172.737 211.356 171.286 217.395 170.114 223.44C168.623 231.106 167.504 236.541 167.504 236.541" fill="#455A64"/>
<path d="M167.532 236.541C167.532 236.541 167.532 236.426 167.579 236.209L167.755 235.24L168.433 231.532L171.09 217.889C171.639 215.009 172.181 211.844 172.615 208.401C172.838 206.693 173.035 204.917 173.204 203.094C173.431 201.223 173.538 199.34 173.523 197.455C173.523 196.486 173.523 195.504 173.489 194.514C173.56 193.532 173.433 192.546 173.116 191.613C172.668 190.721 171.907 190.024 170.978 189.657C170.05 189.289 169.018 189.276 168.081 189.621C167.615 189.82 167.204 190.128 166.883 190.52C166.562 190.912 166.34 191.375 166.237 191.871C166.007 192.908 165.803 193.979 165.559 195.043C165.139 197.178 164.638 199.333 164.339 201.542C163.594 205.975 162.625 210.238 161.73 214.365C160.835 218.493 159.914 222.457 159.019 226.232C158.565 228.117 158.124 229.96 157.664 231.742C157.44 232.637 157.216 233.511 156.986 234.379C156.871 234.813 156.762 235.24 156.627 235.66C156.482 236.057 156.409 236.477 156.41 236.9C156.503 238.548 156.801 240.178 157.298 241.753C157.643 243.234 158.45 244.568 159.602 245.562C160.143 246.013 160.745 246.385 161.391 246.666C162.012 246.915 162.664 247.075 163.33 247.141C164.554 247.246 165.783 246.987 166.861 246.395C167.807 245.887 168.514 245.024 168.826 243.996C169.066 243.127 169.125 242.219 169.002 241.326C168.823 240.082 168.482 238.868 167.986 237.713C167.816 237.314 167.681 237.036 167.586 236.819L167.443 236.514C167.443 236.514 167.511 236.609 167.62 236.798C167.728 236.988 167.87 237.286 168.053 237.686C168.578 238.838 168.943 240.055 169.138 241.305C169.274 242.21 169.221 243.133 168.982 244.016C168.826 244.55 168.567 245.048 168.218 245.48C167.869 245.913 167.437 246.272 166.949 246.538C165.837 247.159 164.566 247.437 163.296 247.337C162.598 247.275 161.914 247.113 161.262 246.856C160.2 246.414 159.258 245.725 158.515 244.845C157.773 243.966 157.251 242.922 156.993 241.8C156.482 240.2 156.175 238.543 156.078 236.866C156.076 236.639 156.094 236.412 156.132 236.188C156.174 235.959 156.231 235.733 156.301 235.511C156.43 235.097 156.539 234.67 156.654 234.243C156.871 233.376 157.094 232.502 157.331 231.607C157.752 229.824 158.192 227.981 158.64 226.097C159.521 222.322 160.422 218.35 161.351 214.23C162.279 210.109 163.208 205.832 163.953 201.434C164.244 199.204 164.753 197.049 165.173 194.907C165.403 193.843 165.6 192.786 165.851 191.728C165.967 191.182 166.213 190.671 166.566 190.239C166.92 189.806 167.372 189.464 167.884 189.241C168.926 188.837 170.083 188.847 171.119 189.268C172.154 189.688 172.99 190.489 173.455 191.505C173.543 191.756 173.631 192 173.706 192.25L173.814 193.03C173.814 193.538 173.814 194.033 173.855 194.534C173.855 195.524 173.855 196.507 173.855 197.483C173.862 199.376 173.752 201.269 173.523 203.148C173.34 204.978 173.143 206.754 172.913 208.462C172.466 211.891 171.903 215.056 171.34 217.95L168.575 231.573C168.243 233.166 167.986 234.406 167.803 235.267C167.715 235.68 167.647 235.999 167.593 236.229C167.538 236.46 167.532 236.541 167.532 236.541Z" fill="#263238"/>
<path d="M167.077 194.121C167.098 194.61 167.263 195.082 167.552 195.477C167.841 195.872 168.24 196.173 168.7 196.341C169.159 196.509 169.659 196.537 170.134 196.421C170.61 196.305 171.04 196.051 171.371 195.691C171.702 195.33 171.919 194.88 171.994 194.396C172.069 193.912 171.998 193.417 171.792 192.974C171.586 192.53 171.252 192.158 170.834 191.903C170.416 191.649 169.932 191.525 169.443 191.546C168.788 191.576 168.172 191.863 167.729 192.346C167.286 192.828 167.052 193.467 167.077 194.121Z" fill="#263238"/>
<path d="M161.195 242.004C161.217 242.492 161.383 242.963 161.672 243.358C161.962 243.752 162.362 244.051 162.821 244.218C163.281 244.385 163.78 244.412 164.255 244.296C164.73 244.179 165.16 243.925 165.49 243.564C165.82 243.203 166.036 242.753 166.111 242.269C166.185 241.786 166.115 241.292 165.908 240.848C165.702 240.405 165.368 240.033 164.95 239.779C164.532 239.525 164.049 239.401 163.56 239.421C163.235 239.435 162.916 239.513 162.621 239.651C162.326 239.788 162.061 239.982 161.842 240.222C161.622 240.462 161.452 240.743 161.341 241.048C161.23 241.354 161.18 241.679 161.195 242.004Z" fill="#263238"/>
<path d="M158.789 239.726C160.019 239.112 161.3 238.606 162.618 238.215C163.893 237.707 165.211 237.312 166.556 237.036C165.325 237.644 164.047 238.15 162.733 238.547C161.453 239.047 160.133 239.441 158.789 239.726Z" fill="#263238"/>
<path d="M167.057 219.435C167.727 219.435 168.27 218.892 168.27 218.222C168.27 217.552 167.727 217.009 167.057 217.009C166.387 217.009 165.844 217.552 165.844 218.222C165.844 218.892 166.387 219.435 167.057 219.435Z" fill="#263238"/>
<path d="M164.353 232.224C164.354 232.465 164.284 232.702 164.151 232.903C164.017 233.105 163.827 233.262 163.605 233.356C163.382 233.449 163.136 233.474 162.899 233.428C162.662 233.381 162.444 233.266 162.273 233.095C162.102 232.925 161.985 232.708 161.937 232.471C161.889 232.234 161.913 231.988 162.005 231.765C162.097 231.542 162.254 231.351 162.455 231.217C162.655 231.082 162.891 231.011 163.133 231.01C163.455 231.01 163.765 231.138 163.993 231.365C164.222 231.593 164.351 231.901 164.353 232.224Z" fill="#263238"/>
<path d="M137.162 8.96818C136.827 8.51388 136.44 8.09996 136.01 7.73469C134.701 6.769 133.145 6.19334 131.523 6.07421C127.314 5.54557 121.14 6.69096 114.105 9.42227C105.86 12.7082 98.1067 17.1118 91.0616 22.5095C86.8841 25.6465 83.0576 29.2254 79.6484 33.184C77.8445 35.2713 76.3078 37.5753 75.0736 40.0427C74.4568 41.2996 74.0363 42.6436 73.8266 44.0279C73.7317 44.7227 73.7317 45.4272 73.8266 46.1221C73.921 46.8152 74.1612 47.4805 74.5316 48.074C74.9019 48.6675 75.3939 49.1757 75.975 49.565C76.5561 49.9544 77.1877 50.2622 77.8524 50.48C79.1915 50.8921 80.5856 51.0978 81.9866 51.09C84.7463 51.0661 87.4921 50.6973 90.1602 49.992C95.2203 48.6661 100.122 46.7959 104.779 44.4142C112.719 40.4678 120.08 35.451 126.657 29.5038C132.201 24.3868 135.942 19.3377 137.311 15.3322C137.913 13.8273 138.08 12.1832 137.792 10.588C137.652 10.0404 137.449 9.51065 137.189 9.00885L137.406 9.3816C137.497 9.53357 137.572 9.69489 137.629 9.8628C137.728 10.0808 137.805 10.3078 137.86 10.5405C138.185 12.1561 138.039 13.831 137.44 15.3661C136.084 19.4325 132.363 24.5156 126.826 29.6733C120.246 35.6708 112.868 40.7296 104.901 44.7056C100.224 47.1026 95.3024 48.9885 90.2212 50.3309C87.5245 51.0449 84.749 51.4183 81.9595 51.4424C80.5216 51.4478 79.0911 51.2353 77.7168 50.8121C77.0193 50.584 76.3559 50.2625 75.7446 49.8565C75.1383 49.4219 74.6168 48.8797 74.2061 48.257C73.8276 47.6165 73.5725 46.9108 73.4538 46.1763C73.3556 45.4476 73.3556 44.7091 73.4538 43.9804C73.6816 42.5666 74.1226 41.1955 74.7619 39.914C76.004 37.4171 77.557 35.0875 79.3841 32.9806C82.8267 29.0036 86.6897 25.4109 90.9057 22.2655C97.9675 16.8594 105.745 12.4595 114.017 9.19183C121.086 6.48086 127.294 5.36258 131.536 5.93866C133.178 6.07199 134.745 6.67687 136.05 7.68047C136.244 7.83276 136.424 8.00294 136.586 8.18877C136.711 8.31672 136.822 8.45757 136.918 8.60898C137.087 8.84619 137.162 8.96818 137.162 8.96818Z" fill="#00FFF5"/>
<path d="M145.085 4.08171C144.67 3.51627 144.195 2.99807 143.668 2.53645C143.013 1.99706 142.279 1.56057 141.493 1.24196C140.405 0.805322 139.266 0.511442 138.104 0.36767C132.892 -0.391403 125.227 0.936974 116.457 4.27825C111.692 6.12108 107.066 8.30689 102.617 10.8185C97.4886 13.6793 92.5734 16.907 87.9101 20.4763C82.7383 24.382 78.015 28.8485 73.8266 33.794C71.6088 36.4068 69.7343 39.2926 68.2488 42.381C67.4952 43.9507 66.9943 45.6296 66.7645 47.3557C66.6571 48.2207 66.6685 49.0963 66.7984 49.9582C66.9525 50.8162 67.2577 51.64 67.6998 52.3913C68.1838 53.1192 68.789 53.7587 69.489 54.2822C70.2079 54.7754 70.9898 55.1698 71.8137 55.4547C73.4665 56.0052 75.1954 56.2933 76.9374 56.3087C80.3649 56.3323 83.7813 55.9178 87.1036 55.0752C93.3948 53.4744 99.4906 51.1856 105.281 48.2503C110.526 45.629 115.574 42.6324 120.388 39.2837C124.601 36.3776 128.599 33.1703 132.35 29.6869C139.195 23.2957 143.763 16.9724 145.369 11.9639C145.733 10.8663 145.961 9.72821 146.047 8.57515C146.103 7.72672 146.033 6.87462 145.837 6.04716C145.656 5.36972 145.399 4.71492 145.071 4.09526C145.071 4.09526 145.166 4.25114 145.335 4.5629C145.449 4.75239 145.544 4.95207 145.62 5.15932C145.74 5.43961 145.835 5.72989 145.905 6.02683C146.117 6.85862 146.199 7.71821 146.149 8.57515C146.069 9.74455 145.841 10.8991 145.471 12.0113C143.885 17.0741 139.331 23.4448 132.485 29.8766C128.759 33.3726 124.784 36.5936 120.591 39.5142C115.761 42.8886 110.692 45.9059 105.423 48.5417C99.6172 51.4997 93.5002 53.8024 87.1849 55.4072C83.8373 56.2643 80.393 56.6857 76.9374 56.6611C75.156 56.6469 73.388 56.3518 71.6985 55.7868C70.8432 55.4901 70.0316 55.0798 69.2857 54.5668C68.5497 54.0186 67.9145 53.3466 67.4084 52.5811C66.9417 51.7899 66.6182 50.9227 66.4527 50.0192C66.3336 49.1194 66.3336 48.2079 66.4527 47.3082C66.6933 45.5456 67.2054 43.8309 67.9709 42.2251C69.4707 39.113 71.361 36.2046 73.5962 33.5703C77.8136 28.6048 82.5688 24.1224 87.7746 20.2052C92.4552 16.6303 97.3911 13.4024 102.543 10.5474C107 8.04729 111.632 5.87284 116.402 4.04104C125.213 0.726874 132.912 -0.574395 138.158 0.23212C139.321 0.391226 140.46 0.696358 141.547 1.1403C142.339 1.47875 143.075 1.93582 143.729 2.49579C143.975 2.68602 144.202 2.89935 144.407 3.13286C144.564 3.29088 144.702 3.46592 144.82 3.65473L145.085 4.08171Z" fill="#00FFF5"/>
<path d="M133.278 28.3313C133.059 28.0596 132.819 27.8058 132.56 27.5723C131.757 26.9689 130.802 26.6005 129.801 26.5082C127.199 26.1422 123.37 26.8132 119.005 28.4872C113.902 30.5152 109.11 33.2532 104.772 36.6201C102.188 38.5705 99.8261 40.8003 97.7306 43.2688C96.6292 44.5711 95.6977 46.0082 94.9587 47.5454C94.5856 48.3219 94.3363 49.152 94.2199 50.0056C94.162 50.4306 94.162 50.8615 94.2199 51.2865C94.2875 51.706 94.4379 52.1079 94.6625 52.4686C94.8871 52.8294 95.1813 53.1417 95.528 53.3875C95.8798 53.6299 96.2628 53.8237 96.6666 53.9636C97.4867 54.2353 98.3442 54.377 99.2081 54.3838C100.913 54.397 102.612 54.192 104.264 53.7738C107.402 52.9797 110.443 51.8433 113.332 50.3851C118.263 47.9514 122.826 44.8347 126.887 41.1271C130.31 37.9417 132.601 34.7902 133.407 32.3165C133.682 31.6954 133.815 31.021 133.796 30.3422C133.777 29.6633 133.607 28.9972 133.299 28.3923C133.498 28.6854 133.645 29.0111 133.732 29.3547C133.959 30.3552 133.893 31.3998 133.543 32.3639C132.756 34.9054 130.479 38.1044 127.057 41.3305C123.006 45.0801 118.442 48.2339 113.502 50.6969C110.577 52.1602 107.5 53.2944 104.325 54.0788C102.642 54.5091 100.911 54.7209 99.1742 54.7091C98.2757 54.7 97.384 54.5513 96.531 54.2686C96.0947 54.1198 95.6817 53.9099 95.3043 53.6451C94.9253 53.3665 94.5993 53.0222 94.3419 52.6285C94.1011 52.2226 93.9336 51.7775 93.8472 51.3136C93.788 50.8637 93.788 50.408 93.8472 49.9581C93.9655 49.0669 94.224 48.2 94.613 47.3895C95.368 45.8279 96.3176 44.3682 97.4392 43.0452C99.554 40.5569 101.938 38.3111 104.549 36.349C108.931 32.9863 113.771 30.2681 118.924 28.2771C123.322 26.6166 127.192 25.9796 129.822 26.393C130.841 26.5011 131.807 26.8986 132.607 27.5384C132.813 27.7079 132.994 27.9065 133.143 28.128C133.231 28.25 133.278 28.3313 133.278 28.3313Z" fill="#00FFF5"/>
<path d="M114.735 20.3069C114.735 20.3069 114.606 20.1578 114.342 19.9206C113.915 19.6213 113.418 19.437 112.899 19.3852C111.543 19.2022 109.51 19.5682 107.253 20.4425C104.584 21.5136 102.075 22.9481 99.7978 24.7055C98.4456 25.7267 97.2133 26.8976 96.1244 28.1958C95.5402 28.866 95.0521 29.6142 94.674 30.4188C94.4539 30.7956 94.3252 31.2187 94.2981 31.6541C94.271 32.0896 94.3464 32.5254 94.5181 32.9265C94.8091 33.2562 95.1737 33.5126 95.5823 33.6751C95.9908 33.8376 96.432 33.9016 96.8699 33.8618C97.7567 33.8725 98.641 33.7654 99.4995 33.5432C101.142 33.1288 102.733 32.5333 104.244 31.7676C106.825 30.4928 109.218 28.8666 111.353 26.9352C113.143 25.268 114.349 23.6279 114.783 22.3334C114.965 21.8444 115.016 21.3165 114.932 20.8017C114.837 20.456 114.742 20.2866 114.762 20.2798C114.867 20.4337 114.947 20.6029 115 20.7813C115.121 21.3099 115.091 21.8621 114.911 22.374C114.512 23.7295 113.312 25.4035 111.523 27.1182C109.39 29.095 106.987 30.7586 104.386 32.059C102.858 32.8408 101.246 33.4457 99.5809 33.8618C98.6962 34.0944 97.7846 34.2084 96.8699 34.2007C96.6395 34.2007 96.4022 34.16 96.1921 34.1397C95.9625 34.0965 95.736 34.0376 95.5144 33.9634C95.0144 33.8318 94.5834 33.5147 94.3089 33.0766C94.0344 32.6384 93.9372 32.1122 94.0369 31.6049C94.0745 31.3648 94.1265 31.1271 94.1928 30.8933C94.2809 30.6696 94.3487 30.4392 94.4503 30.2155C94.846 29.3869 95.3497 28.6144 95.9482 27.918C97.0604 26.6055 98.3177 25.4232 99.6961 24.3937C102.004 22.6275 104.554 21.2011 107.266 20.1578C109.591 19.3038 111.631 18.965 113.021 19.1954C113.556 19.2608 114.063 19.4744 114.484 19.8122C114.591 19.9643 114.676 20.1309 114.735 20.3069Z" fill="#00FFF5"/>
<path d="M217.081 123.785C217.034 123.873 210.745 120.518 203.032 116.33C195.319 112.141 189.097 108.617 189.145 108.529C189.192 108.441 195.482 111.796 203.201 116.018C210.921 120.24 217.129 123.697 217.081 123.785Z" fill="#5CFEF8"/>
<path d="M259.718 125.838H259.271H257.976H252.995H252.941V125.784L249.193 115.401H249.437C248.685 119.623 247.797 124.571 246.821 130.02L246.739 130.494L246.529 130.061L242.639 122.029H242.951C242.504 123.229 242.029 124.53 241.541 125.852L241.501 125.967H235.231V125.818C234.899 123.412 234.554 120.877 234.188 118.302C234.005 116.98 233.822 115.659 233.645 114.357H233.991C232.839 123.168 231.755 131.416 230.799 138.682L230.684 139.576L230.494 138.695C228.942 131.389 227.6 125.093 226.563 120.199H226.76L223.608 126.509V126.543H219.162H220.07L223.567 126.475L223.506 126.516L226.59 120.179L226.726 119.901L226.787 120.199C227.851 125.086 229.227 131.375 230.819 138.675H230.514C231.456 131.409 232.548 123.148 233.666 114.344L233.835 113.042L234.011 114.344C234.192 115.645 234.375 116.96 234.56 118.288C234.92 120.864 235.238 123.398 235.597 125.804L235.428 125.649H241.419L241.257 125.757L242.673 121.941L242.809 121.568L242.985 121.921C244.34 124.713 245.621 127.404 246.848 129.966L246.556 130.006C247.553 124.584 248.461 119.617 249.267 115.394L249.349 114.927L249.505 115.374C250.975 119.562 252.216 123.093 253.164 125.791L253.09 125.737L258.071 125.825H259.366L259.718 125.838Z" fill="#5CFEF8"/>
<path d="M217.854 123.493C217.854 123.736 217.782 123.973 217.647 124.175C217.513 124.377 217.321 124.534 217.097 124.627C216.873 124.72 216.626 124.744 216.388 124.696C216.15 124.649 215.931 124.532 215.76 124.361C215.588 124.189 215.472 123.971 215.424 123.733C215.377 123.495 215.401 123.248 215.494 123.024C215.587 122.8 215.744 122.608 215.946 122.473C216.148 122.339 216.385 122.267 216.627 122.267C216.953 122.267 217.265 122.396 217.495 122.626C217.725 122.856 217.854 123.168 217.854 123.493Z" fill="#5CFEF8"/>
<path d="M212.608 74.14C212.662 74.2213 206.671 77.9828 199.236 82.544C191.801 87.1053 185.729 90.7244 185.681 90.6431C185.634 90.5618 191.618 86.8003 199.06 82.2391C206.502 77.6778 212.554 74.0587 212.608 74.14Z" fill="#5CFEF8"/>
<path d="M234.994 70.4126H225.553V72.9609H234.994V70.4126Z" fill="#5CFEF8"/>
<path d="M242.876 66.1021H239.311V68.6504H242.876V66.1021Z" fill="#5CFEF8"/>
<path d="M242.876 70.4126H236.817V72.9609H242.876V70.4126Z" fill="#5CFEF8"/>
<path d="M223.96 70.4126H220.396V72.9609H223.96V70.4126Z" fill="#5CFEF8"/>
<path d="M236.817 75.3193H220.307V77.8676H236.817V75.3193Z" fill="#5CFEF8"/>
<path d="M234.994 79.6299H225.553V82.1782H234.994V79.6299Z" fill="#5CFEF8"/>
<path d="M242.876 75.3193H239.311V77.8676H242.876V75.3193Z" fill="#5CFEF8"/>
<path d="M242.876 79.6299H236.817V82.1782H242.876V79.6299Z" fill="#5CFEF8"/>
<path d="M223.96 79.6299H220.396V82.1782H223.96V79.6299Z" fill="#5CFEF8"/>
<path d="M213.835 74.1403C213.835 74.3829 213.763 74.6201 213.628 74.8218C213.493 75.0236 213.302 75.1808 213.078 75.2736C212.854 75.3665 212.607 75.3908 212.369 75.3434C212.131 75.2961 211.912 75.1793 211.741 75.0077C211.569 74.8362 211.452 74.6176 211.405 74.3796C211.358 74.1417 211.382 73.895 211.475 73.6709C211.568 73.4467 211.725 73.2551 211.927 73.1203C212.129 72.9855 212.366 72.9136 212.608 72.9136C212.934 72.9136 213.246 73.0428 213.476 73.2729C213.706 73.5029 213.835 73.8149 213.835 74.1403Z" fill="#5CFEF8"/>
<path d="M157.86 5.83716H144.746V9.1581H157.86V5.83716Z" fill="#5CFEF8"/>
<path d="M154.288 10.4797H141.174V13.8007H154.288V10.4797Z" fill="#5CFEF8"/>
<path d="M165.119 5.83716H159.473V9.1581H165.119V5.83716Z" fill="#E0E0E0"/>
<path d="M143.506 5.83716H142.225V9.1581H143.506V5.83716Z" fill="#E0E0E0"/>
<path d="M157.203 10.5813H155.922V13.9022H157.203V10.5813Z" fill="#E0E0E0"/>
<path d="M159.866 10.5813H158.585V13.9022H159.866V10.5813Z" fill="#E0E0E0"/>
<path d="M75.2973 55.2717H49.9023V58.1928H75.2973V55.2717Z" fill="#5CFEF8"/>
<path d="M75.2973 64.584H49.9023V67.5051H75.2973V64.584Z" fill="#5CFEF8"/>
<path d="M51.4204 59.8467H49.9023V62.7678H51.4204V59.8467Z" fill="#5CFEF8"/>
<path d="M78.8352 65.0991H77.317V68.0202H78.8352V65.0991Z" fill="#E0E0E0"/>
<path d="M81.6749 55.2717H76.7138V58.1928H81.6749V55.2717Z" fill="#5CFEF8"/>
<path d="M68.0591 59.8127H63.098V62.7338H68.0591V59.8127Z" fill="#5CFEF8"/>
<path d="M77.3509 59.738H69.4078V62.6591H77.3509V59.738Z" fill="#5CFEF8"/>
</svg>
